<?xml version="1.0" standalone="no"?>
<!DOCTYPE svg PUBLIC "-//W3C//DTD SVG 1.1//EN" "http://www.w3.org/Graphics/SVG/1.1/DTD/svg11.dtd" >
<svg xmlns="http://www.w3.org/2000/svg">
<metadata>Generated by IcoMoon</metadata>
<defs>
<font id="reneco" horiz-adv-x="1024">
<font-face units-per-em="1024" ascent="960" descent="-64" />
<missing-glyph horiz-adv-x="1024" />
<glyph unicode="&#x20;" horiz-adv-x="512" d="" />
<glyph unicode="&#xe600;" glyph-name="exportsmall" d="M252.508 504.618l235.908-235.908c4.718-4.72 14.154-9.438 23.59-9.438s18.87 4.72 23.592 9.438l235.908 235.908c9.438 9.438 14.154 23.592 9.438 37.748s-18.87 18.87-33.028 18.87h-136.826v235.908c0 9.438-4.72 18.868-9.438 23.592s-14.154 9.438-23.592 9.438h-136.826c-9.438 0-18.87-4.72-23.592-9.438s-9.438-14.154-9.438-23.592v-235.908h-132.1c-14.154 0-23.592-4.718-33.028-18.87-4.718-14.154 0-28.308 9.438-37.748zM936.626 278.15c-9.438 9.438-23.592 14.154-37.748 14.154h-245.336l-70.774-70.774c-18.87-18.87-42.458-28.308-70.774-28.308s-51.902 9.438-70.774 28.308l-70.774 70.774h-245.336c-14.154 0-28.308-4.72-37.748-14.154s-14.154-23.592-14.154-37.748v-169.85c0-14.154 4.718-28.308 14.154-37.748s23.592-14.154 37.748-14.154h778.482c14.154 0 28.308 4.72 37.748 14.154s14.154 23.592 14.154 37.748v169.85c-4.72 14.154-9.438 28.308-18.87 37.748zM738.47 98.864c-4.72-4.72-14.154-9.438-23.592-9.438s-18.87 4.72-23.592 9.438c-4.72 4.72-9.438 14.154-9.438 23.592s4.72 18.87 9.438 23.592c4.72 4.72 14.154 9.438 23.592 9.438s18.87-4.72 23.592-9.438c4.72-4.72 9.438-14.154 9.438-23.592s-4.72-18.87-9.438-23.592zM875.292 98.864c-4.72-4.72-14.154-9.438-23.592-9.438s-18.87 4.72-23.592 9.438c-4.72 4.72-9.438 14.154-9.438 23.592s4.72 18.87 9.438 23.592c4.72 4.72 14.154 9.438 23.592 9.438s18.87-4.72 23.592-9.438c4.72-4.72 9.438-14.154 9.438-23.592s-4.72-18.87-9.438-23.592z" />
<glyph unicode="&#xe601;" glyph-name="view" d="M930.846 847.36h-769.504c-29.22 0-77.924-19.478-77.924-77.924v-691.578c0-29.22 19.478-77.924 77.924-77.924h769.504c29.22 0 77.924 19.478 77.924 77.924v691.578c0 29.22-19.478 77.924-77.924 77.924zM161.336 784.048h769.504c4.87 0 14.61 0 14.61-14.61v-170.462h-798.726v170.462c0 4.87 0 14.61 14.61 14.61zM146.73 77.862v448.064h545.472v-462.678h-530.86c-4.872 0-14.61 0-14.61 14.61zM930.846 63.244h-165.59v462.678h180.198v-448.064c0-4.87 0-14.61-14.61-14.61z" />
<glyph unicode="&#xe602;" glyph-name="protocol" d="M834.046 299.058c-48.308 0-88.562-20.13-116.742-52.33l-370.348 177.126c0 8.052 4.026 16.1 4.026 28.18 0 8.052 0 12.076-4.026 20.13l382.428 181.152c28.18-32.206 68.436-52.33 116.742-52.33 84.538 0 156.996 68.436 156.996 156.996 0 84.538-68.436 156.996-156.996 156.996s-156.996-68.436-156.996-156.996c0-8.052 0-16.1 4.028-24.152l-382.428-181.152c-28.18 32.208-72.462 56.358-120.766 56.358-84.538 0-156.996-68.436-156.996-156.996 0-84.538 68.436-156.996 156.996-156.996 44.284 0 84.536 20.13 116.742 52.33l370.348-177.126c0-8.052-4.028-16.1-4.028-24.152 0-84.538 68.436-156.996 156.996-156.996 84.538 0 156.996 68.436 156.996 156.996 4.028 80.514-64.408 152.97-152.97 152.97z" />
<glyph unicode="&#xe603;" glyph-name="drag2" d="M51.298 442.644l133.918-133.918c5.356-5.356 16.068-10.716 21.426-10.716 10.716 0 16.068 5.356 21.426 10.716s10.716 16.068 10.716 21.424v64.284h203.564v-203.562h-69.64c-10.714 0-16.070-5.356-21.426-10.716s-10.714-16.068-10.714-21.424c0-10.716 5.358-16.068 10.714-21.424l133.918-133.918c5.358-5.356 16.070-10.716 26.786-10.716s16.068 5.356 21.424 10.716l133.918 133.918c5.356 5.356 10.716 16.068 10.716 21.424 0 10.716-5.356 16.068-10.716 21.424s-16.068 10.716-21.424 10.716h-69.64v203.562h203.562v-64.284c0-10.716 5.356-16.068 10.716-21.424s16.068-10.716 21.424-10.716c10.716 0 16.068 5.356 21.424 10.716l133.918 133.918c5.356 5.358 10.716 16.070 10.716 26.786s-5.356 16.070-10.716 21.426l-133.918 133.918c-5.356 5.358-16.068 10.716-21.424 10.716-10.716 0-16.068-5.358-21.424-10.716s-10.716-16.070-10.716-21.426v-69.638h-203.562v203.562h69.64c10.716 0 16.068 5.358 21.424 10.716s10.716 16.070 10.716 21.426c0 10.714-5.356 16.068-10.716 21.424l-133.918 139.288c-5.356 5.356-16.068 10.716-21.426 10.716-10.714 0-16.070-5.356-26.786-10.716l-133.918-133.918c-5.358-5.356-10.714-16.068-10.714-21.424 0-10.716 5.358-16.070 10.714-21.426s16.070-10.714 21.426-10.714h69.64v-203.564h-198.206v69.64c0 10.714-5.356 16.068-10.716 21.424s-16.068 10.714-21.426 10.714c-10.716 0-16.068-5.356-21.426-10.714l-133.918-133.918c-5.356-5.358-10.716-16.070-10.716-21.426-5.356-16.070 0-26.786 5.356-32.14z" />
<glyph unicode="&#xe604;" glyph-name="duplicate" horiz-adv-x="1056" d="M880.818 158.524c-9.982 0-19.962 3.328-29.942 6.654v-83.178h-445.862v316.096h206.294c13.308 0 23.292 3.328 33.272 13.308s13.308 19.962 13.308 33.272v206.294h189.658v-46.582c9.982 3.33 19.962 6.654 29.942 6.654s19.962-3.33 29.942-6.654v59.894c0 13.31-3.328 23.292-13.308 33.272s-19.962 13.308-33.272 13.308h-206.294c-19.962 0-39.928-6.654-63.22-19.962v163.038c0 13.308-3.328 23.292-13.308 33.272s-19.962 13.308-33.272 13.308h-206.294c-13.31 0-26.62-3.328-43.254-9.982s-26.62-16.638-36.6-23.292l-199.64-202.966c-9.982-9.982-16.638-19.962-23.292-36.6s-9.982-29.942-9.982-43.254v-332.732c0-13.308 3.33-23.292 13.308-33.272s19.964-13.308 33.272-13.308h266.188v-139.748c0-13.308 3.33-23.292 13.31-33.272s19.964-13.308 33.272-13.308h472.48c13.308 0 23.292 3.328 33.272 13.308s13.308 19.962 13.308 33.272v96.492c-3.328 0-13.308-3.328-23.292-3.328zM594.664 611.038v-146.404h-149.73l149.73 146.404zM281.9 797.37v-146.404h-146.402l146.402 146.404zM375.060 481.272c-9.982-9.982-16.638-23.292-23.292-36.6-6.654-16.638-9.982-29.942-9.982-43.254v-126.438h-252.876v316.096h206.294c13.31 0 23.292 3.328 33.272 13.308s13.31 19.964 13.31 33.272v206.294h189.658v-206.294l-156.384-156.384zM1043.856 384.78c0 19.962-13.308 33.272-33.272 33.272h-96.494v96.494c0 19.962-13.308 33.272-33.272 33.272s-33.272-13.308-33.272-33.272v-96.494h-96.492c-19.962 0-33.272-13.308-33.272-33.272s13.308-33.272 33.272-33.272h96.492v-96.494c0-19.962 13.308-33.272 33.272-33.272s33.272 13.308 33.272 33.272v96.492h96.492c19.962 0 33.272 16.638 33.272 33.272z" />
<glyph unicode="&#xe605;" glyph-name="pendingsamples" d="M861.554 530.486h-270.102c-12.466 0-24.932 12.466-24.932 24.93s12.466 24.932 24.932 24.932h270.104c12.466 0 24.932-12.466 24.932-24.932s-8.312-24.93-24.932-24.93zM861.554 418.288h-270.102c-12.466 0-24.932 12.466-24.932 24.932s12.466 24.93 24.932 24.93h270.104c12.466 0 24.932-12.466 24.932-24.93s-8.312-24.932-24.932-24.932zM861.554 310.254h-270.102c-12.466 0-24.932 12.466-24.932 24.932s12.466 24.932 24.932 24.932h270.104c12.466 0 24.932-12.466 24.932-24.932s-8.312-24.932-24.932-24.932zM944.66 81.706h-868.48c-49.866 0-66.484 37.394-66.484 66.486v590.068c0 49.866 37.396 66.486 66.484 66.486h864.322c49.866 0 66.486-37.394 66.486-66.486v-590.068c0-49.866-37.394-66.486-62.332-66.486zM76.18 750.722c-12.466 0-12.466-8.312-12.466-12.466v-590.068c0-12.466 8.312-12.466 12.466-12.466h864.322c12.466 0 12.466 8.312 12.466 12.466v590.068c0 12.466-8.312 12.466-12.466 12.466h-864.322zM479.254 422.446c-4.156 12.466-16.62 20.778-29.088 20.778h-29.088v170.378c0 16.618-16.62 33.246-33.246 33.246h-162.060c-16.618 0-33.246-16.618-33.246-33.246v-170.378h-29.088c-12.466 0-24.932-8.312-29.088-20.778s-4.158-24.932 8.312-33.246l137.128-137.128c8.312-8.312 16.62-12.466 24.93-12.466s20.778 4.158 24.93 12.466l137.128 137.128c12.466 8.312 16.618 24.932 12.466 33.246zM446.014 409.982l-132.972-132.972c-4.156-4.158-4.156-4.158-8.312 0l-132.972 132.972h54.018v199.46c0 0 0 0 0 0h162.060c0 0 0 0 0 0v-199.46h58.176z" />
<glyph unicode="&#xe606;" glyph-name="samples" d="M860.952 530.486h-270.104c-12.466 0-24.932 12.466-24.932 24.93s12.466 24.932 24.932 24.932h270.104c12.466 0 24.932-12.466 24.932-24.932s-8.312-24.93-24.932-24.93zM860.952 418.288h-270.104c-12.466 0-24.932 12.466-24.932 24.932s12.466 24.93 24.932 24.93h270.104c12.466 0 24.932-12.466 24.932-24.93s-8.312-24.932-24.932-24.932zM860.952 310.254h-270.104c-12.466 0-24.932 12.466-24.932 24.932s12.466 24.932 24.932 24.932h270.104c12.466 0 24.932-12.466 24.932-24.932s-8.312-24.932-24.932-24.932zM944.058 81.706h-868.48c-49.866 0-66.484 37.394-66.484 66.486v590.068c0 49.866 37.396 66.486 66.484 66.486h868.48c49.866 0 66.486-37.394 66.486-66.486v-590.068c0-49.866-41.554-66.486-66.486-66.486zM75.576 750.722c-12.466 0-12.466-8.312-12.466-12.466v-590.068c0-12.466 8.312-12.466 12.466-12.466h868.48c12.466 0 12.466 8.312 12.466 12.466v590.068c0 12.466-8.312 12.466-12.466 12.466h-868.48zM516.052 314.406l-132.972 224.39v70.644h4.156c8.312 0 12.466 4.158 12.466 12.466s-4.156 12.466-12.466 12.466h-112.198c-8.312 0-12.466-4.158-12.466-12.466s4.156-12.466 12.466-12.466h4.156v-70.644l-132.972-224.39c-20.778-33.246-4.158-62.332 33.246-62.332h299.192c41.554 0 54.018 29.090 37.394 62.332zM216.86 376.736l91.42 149.594h49.866l91.42-149.594h-232.706zM374.77 414.134c0-11.472-9.302-20.778-20.778-20.778s-20.778 9.302-20.778 20.778c0 11.472 9.302 20.778 20.778 20.778s20.778-9.302 20.778-20.778zM316.59 426.606c0-11.472-9.302-20.778-20.778-20.778s-20.778 9.302-20.778 20.778c0 11.472 9.302 20.778 20.778 20.778s20.778-9.302 20.778-20.778zM349.834 459.844c0-6.888-5.58-12.466-12.466-12.466s-12.466 5.58-12.466 12.466c0 6.888 5.58 12.466 12.466 12.466s12.466-5.58 12.466-12.466z" />
<glyph unicode="&#xe607;" glyph-name="ECOL-ecollectionsmall" d="M770.126 857.106c0 19.478 14.61 34.092 34.092 34.092h155.848c19.478 0 34.092-14.61 34.092-34.092v-160.718c0-19.478-14.61-34.092-34.092-34.092h-155.848c-19.478 0-34.092 14.61-34.092 34.092v160.718zM414.592 857.106c0 19.478 14.61 34.092 34.094 34.092h160.718c19.478 0 34.092-14.61 34.092-34.092v-160.718c0-19.478-14.61-34.092-34.092-34.092h-155.848c-19.478 0-34.094 14.61-34.094 34.092v160.718zM63.936 857.106c0 19.478 14.61 34.092 34.092 34.092h155.848c19.478 0 34.094-14.61 34.094-34.092v-160.718c0-19.478-14.61-34.092-34.094-34.092h-155.848c-19.478 0-34.094 14.61-34.094 34.092v160.718zM770.126 150.916c0 19.478 14.61 34.092 34.092 34.092h155.848c19.478 0 34.092-14.61 34.092-34.092v-160.716c0-19.478-14.61-34.092-34.092-34.092h-155.848c-19.478 0-34.092 14.61-34.092 34.092v160.716zM414.592 150.916c0 19.478 14.61 34.092 34.094 34.092h160.718c19.478 0 34.092-14.61 34.092-34.092v-160.716c0-19.478-14.61-34.092-34.092-34.092h-155.848c-19.478 0-34.094 14.61-34.094 34.092v160.716zM63.936 150.916c0 19.478 14.61 34.092 34.092 34.092h155.848c19.478 0 34.094-14.61 34.094-34.092v-160.716c0-19.478-14.61-34.092-34.094-34.092h-155.848c-19.478 0-34.094 14.61-34.094 34.092v160.716zM770.126 506.442c0 19.478 14.61 34.094 34.092 34.094h155.848c19.478 0 34.092-14.61 34.092-34.094v-160.716c0-19.478-14.61-34.092-34.092-34.092h-155.848c-19.478 0-34.092 14.61-34.092 34.092v160.716zM414.592 506.442c0 19.478 14.61 34.094 34.094 34.094h160.718c19.478 0 34.092-14.61 34.092-34.094v-160.716c0-19.478-14.61-34.092-34.092-34.092h-155.848c-19.478 0-34.094 14.61-34.094 34.092v160.716zM63.936 506.442c0 19.478 14.61 34.094 34.092 34.094h155.848c19.478 0 34.094-14.61 34.094-34.094v-160.716c0-19.478-14.61-34.092-34.094-34.092h-155.848c-19.478 0-34.094 14.61-34.094 34.092v160.716z" />
<glyph unicode="&#xe608;" glyph-name="rfid_format" d="M849.137 735.307l-172.968 175.902c-5.866 5.866-14.661 8.795-23.453 8.795h-469.069c-11.725 0-20.52-8.795-20.52-20.52v-902.959c0-11.725 8.795-20.52 20.52-20.52h656.698c11.725 0 20.52 8.795 20.52 20.52v718.261c0 5.866-5.866 17.591-11.725 20.52zM690.825 849.642l102.61-102.61h-102.61v102.61zM828.616 5.316h-633.242v885.368h460.274c0 0 2.93 0 2.93 0v-158.312c0-8.795 5.866-14.661 14.661-14.661h152.446c0 0 0-2.93 0-2.93v-709.468zM426.974 618.037l-96.744-96.744v-249.194c0-11.725 8.795-23.453 23.453-23.453h322.484c11.725 0 23.453 8.795 23.453 23.453v322.484c0 11.725-8.795 23.453-23.453 23.453h-249.194zM670.305 272.101h-307.828c-2.93 0-5.866 2.93-5.866 5.866v228.67c0 0 79.153 85.019 85.019 85.019v0h231.604c2.93 0 5.866-2.93 5.866-5.866v-307.828c-2.93-2.93-5.866-5.866-8.795-5.866zM655.644 574.065h-208.149l-73.293-76.224v-205.218h281.442v23.453h-257.986v170.037l58.633 64.497h178.832l-2.93-193.493h-190.559v111.405l35.181 38.111h111.405v-70.36h-32.247v29.316h-82.088v-82.088h82.088v29.316h55.702v117.266h-143.651l-49.838-52.772v-140.721h237.465z" />
<glyph unicode="&#xe609;" glyph-name="gsm_format" d="M849.144 735.292l-172.968 175.902c-5.866 5.866-14.661 8.795-23.453 8.795h-469.069c-11.725 0-20.52-8.795-20.52-20.52v-902.959c0-11.725 8.795-20.52 20.52-20.52h656.698c11.725 0 20.52 8.795 20.52 20.52v718.261c0 5.866-5.866 17.591-11.725 20.52zM690.832 849.627l102.61-102.61h-102.61v102.61zM828.623 5.301h-633.242v885.368h460.274c0 0 2.93 0 2.93 0v-158.312c0-8.795 5.866-14.661 14.661-14.661h152.446c0 0 0-2.93 0-2.93v-709.468zM617.539 450.92c-5.866 0-11.725 5.866-11.725 11.725 0 38.111-32.247 70.36-70.36 70.36-5.866 0-11.725 5.866-11.725 11.725s5.866 11.725 11.725 11.725c52.772 0 93.814-41.042 93.814-93.814 0-5.866-5.866-11.725-11.725-11.725zM667.381 450.92c-5.866 0-11.725 5.866-11.725 11.725 0 64.497-52.772 120.201-120.201 120.201-5.866 0-11.725 5.866-11.725 11.725s5.866 11.725 11.725 11.725c79.153 0 143.651-64.497 143.651-143.651 0-5.866-5.866-11.725-11.725-11.725zM588.224 445.054c-5.866-5.866-11.725-11.725-17.591-14.661 17.591-29.316 23.453-55.702 8.795-70.36-5.866-5.866-11.725-8.795-20.52-8.795v0c-23.453 0-58.633 20.52-87.949 49.838-20.52 20.52-35.181 41.042-43.977 61.568s-8.795 38.111 2.93 46.906c5.866 5.866 11.725 8.795 20.52 8.795 14.661 0 32.247-5.866 49.838-17.591 2.93 5.866 8.795 11.725 14.661 17.591-23.453 14.661-49.838 23.453-67.428 23.453-11.725 0-20.52-2.93-29.316-11.725-23.453-23.453-38.111-55.702-38.111-90.883s14.661-67.428 38.111-90.883c23.453-23.453 55.702-38.111 90.883-38.111s67.428 14.661 90.883 38.111c20.52 17.591 14.661 58.633-11.725 96.744zM579.428 474.37c0 17.591-14.661 32.247-32.247 32.247-14.661 0-26.386-8.795-29.316-20.52l-49.838-8.795c-5.866 0-11.725-8.795-8.795-14.661 0-5.866 8.795-11.725 14.661-8.795l43.977 8.795c2.93-5.866 8.795-11.725 14.661-17.591l-8.795-43.977c0-5.866 2.93-14.661 8.795-14.661 0 0 2.93 0 2.93 0 5.866 0 11.725 2.93 11.725 8.795l8.795 46.906c14.661 5.866 23.453 17.591 23.453 32.247zM512 280.878c-26.386 0-49.838 5.866-73.293 17.591-20.52-14.661-32.247-38.111-32.247-61.568h158.312c0 17.591-5.866 35.181-17.591 49.838-11.725-2.93-23.453-5.866-35.181-5.866z" />
<glyph unicode="&#xe60a;" glyph-name="gpx_format" d="M849.144 735.292l-172.968 175.902c-5.866 5.866-14.661 8.795-23.453 8.795h-469.069c-11.725 0-20.52-8.795-20.52-20.52v-902.959c0-11.725 8.795-20.52 20.52-20.52h656.698c11.725 0 20.52 8.795 20.52 20.52v718.261c0 5.866-5.866 17.591-11.725 20.52zM690.832 849.627l102.61-102.61h-102.61v102.61zM828.623 5.301h-633.242v885.368h460.274c0 0 2.93 0 2.93 0v-158.312c0-8.795 5.866-14.661 14.661-14.661h152.446c0 0 0-2.93 0-2.93v-709.468zM512 242.766v0c-5.866 0-8.795 2.93-11.725 5.866l-93.814 193.493c0 0 0 0 0 0-5.866 14.661-8.795 29.316-8.795 46.906 0 64.497 52.772 117.266 114.335 117.266 64.497 0 117.266-52.772 117.266-117.266 0-20.52-5.866-38.111-14.661-55.702l-90.883-184.698c-2.93-2.93-5.866-5.866-11.725-5.866zM429.912 453.85l82.088-170.037 79.153 161.241c0 0 0 0 0 0 8.795 14.661 11.725 29.316 11.725 43.977 0 49.838-41.042 90.883-90.883 90.883s-90.883-41.042-90.883-90.883c0-8.795 2.93-23.453 8.795-35.181 0 0 0 0 0 0zM512 439.189c-29.316 0-52.772 23.453-52.772 55.702s23.453 55.702 52.772 55.702c29.316 0 52.772-23.453 52.772-55.702s-23.453-55.702-52.772-55.702zM512 521.278c-14.661 0-29.316-11.725-29.316-29.316s11.725-29.316 29.316-29.316c14.661 0 29.316 11.725 29.316 29.316s-14.661 29.316-29.316 29.316z" />
<glyph unicode="&#xe60b;" glyph-name="pdf_format" d="M849.144 735.291l-172.968 175.902c-5.866 5.866-14.661 8.795-23.453 8.795h-469.069c-11.725 0-20.52-8.795-20.52-20.52v-902.959c0-11.725 8.795-20.52 20.52-20.52h656.698c11.725 0 20.52 8.795 20.52 20.52v718.261c-2.93 5.866-5.866 17.591-11.725 20.52zM687.903 849.626l102.61-102.61h-102.61v102.61zM828.624 5.3h-636.176v885.368h460.274c0 0 2.93 0 2.93 0l2.93-2.93v-155.381c0-8.795 5.866-14.661 14.661-14.661h152.446c0 0 0-2.93 0-2.93v-709.468zM708.423 365.898c0 5.866-2.93 11.725-5.866 14.661-8.795 8.795-32.247 11.725-52.772 11.725h-2.93c-17.591 0-38.111-2.93-61.568-5.866-11.725 5.866-20.52 11.725-29.316 20.52-23.453 20.52-41.042 52.772-55.702 85.019 0 2.93 2.93 5.866 2.93 8.795 2.93 14.661 5.866 64.497 5.866 67.428v2.93c0 5.866 2.93 17.591 2.93 26.386 0 5.866-5.866 23.453-20.52 23.453h-5.866c-11.725 0-20.52-5.866-23.453-14.661-8.795-29.316 0-70.36 14.661-126.060l-2.93-8.795c-11.725-26.386-23.453-49.838-35.181-73.293v-2.93c-11.725-23.453-23.453-43.977-32.247-61.568l-11.725-5.866c0 0-17.591-8.795-23.453-11.725-35.181-20.52-58.633-43.977-61.568-61.568 0-5.866 0-11.725 5.866-14.661l8.795-5.866c2.93-2.93 8.795-2.93 11.725-2.93 23.453 0 52.772 32.247 90.883 99.679 46.906 14.661 99.679 29.316 146.587 35.181 41.042-23.453 82.088-32.247 105.539-32.247 5.866 0 8.795 0 11.725 0s8.795 2.93 11.725 8.795c2.93 2.93 2.93 11.725 2.93 14.661l2.93 8.795c0 0 0 0 0 0zM327.303 245.698c2.93 11.725 23.453 41.042 49.838 64.497 2.93 2.93 17.591 14.661 17.591 14.661l5.866 5.866c-35.181-61.568-58.633-82.088-73.293-85.019zM485.614 606.295c0 2.93 2.93 5.866 2.93 8.795 2.93 0 5.866-5.866 11.725-17.591 2.93-8.795 2.93-20.52 2.93-26.386v-2.93c0-5.866-8.795-38.111-11.725-43.977 0 0 0-2.93 0-2.93-5.866 23.453-8.795 43.977-8.795 61.568 0 5.866 0 14.661 2.93 23.453zM435.777 348.308c5.866 11.725 14.661 23.453 20.52 38.111 14.661 29.316 26.386 52.772 32.247 70.36 14.661-26.386 32.247-49.838 52.772-64.497 2.93-2.93 8.795-5.866 11.725-8.795-43.977-11.725-82.088-20.52-117.266-35.181zM702.559 360.034c0 0-2.93-5.866-5.866-5.866s-5.866 0-8.795 0c-17.591 0-43.977 8.795-73.293 20.52 32.247 2.93 55.702 2.93 70.36-2.93 17.591-8.795 17.591-11.725 17.591-11.725z" />
<glyph unicode="&#xe60c;" glyph-name="csv_format" d="M849.127 735.283l-172.958 175.899c-5.87 5.87-14.661 8.795-23.452 8.795h-469.055c-11.722 0-20.517-8.795-20.517-20.517v-902.929c0-11.722 8.795-20.517 20.517-20.517h656.678c11.722 0 20.517 8.795 20.517 20.517v718.235c0 5.87-5.87 17.592-11.722 20.517zM690.819 849.614l102.608-102.608h-102.608v102.608zM828.607 5.314h-633.217v885.337h460.259c0 0 2.927 0 2.927 0v-158.308c0-8.795 5.87-14.661 14.661-14.661h152.438c0 0 0-2.927 0-2.927v-709.444zM711.338 603.363h-398.691c-14.661 0-26.387-11.722-26.387-26.387v-299.024c0-14.661 11.722-26.387 26.387-26.387h401.631c14.661 0 26.387 11.722 26.387 26.387v299.024c0 14.661-14.661 26.387-29.314 26.387zM591.141 579.902h114.33c5.87 0 8.795-2.927 8.795-8.795v-52.774h-123.124v61.565zM591.141 494.888h123.124v-58.629h-123.124v58.629zM591.141 409.872h123.124v-55.701h-123.124v55.701zM426.977 275.025h-108.47c-5.87 0-8.795 2.927-8.795 8.795v46.905h117.261v-55.701zM426.977 354.172h-117.261v55.701h117.261v-55.701zM426.977 433.332h-117.261v58.629h117.261v-58.629zM426.977 518.346h-117.261v52.774c0 5.87 2.927 8.795 8.795 8.795h108.47v-61.565zM567.694 275.025h-114.33v55.701h114.33v-55.701zM567.694 354.172h-114.33v55.701h114.33v-55.701zM567.694 433.332h-114.33v58.629h114.33v-58.629zM567.694 518.346h-114.33v58.629h114.33v-58.629zM591.141 275.025v55.701h123.124v-46.905c0-5.87-2.927-8.795-8.795-8.795h-114.33z" />
<glyph unicode="&#xe60d;" glyph-name="TRACK-sexing" d="M1004.444 514.548l-242.894-19.964c-9.982 0-19.962-9.982-19.962-23.292 0-9.982 9.982-19.964 19.962-19.964 0 0 0 0 3.328 0l159.712 13.31-192.986-192.986-3.328 3.328c-29.942 26.62-69.874 39.928-106.472 39.928-46.582 0-89.84-16.638-123.108-49.91s-49.912-76.53-49.912-123.11c0-46.582 16.638-89.84 49.912-123.11s76.53-49.912 123.108-49.912c46.582 0 89.84 16.638 123.11 49.912s49.912 76.53 49.912 123.11c0 36.6-9.982 69.874-33.272 99.82l-3.328 3.328 192.986 192.986-6.654-163.038c0-9.982 6.654-23.292 19.962-23.292s23.292 6.654 23.292 19.962l16.638 242.894zM718.294 45.398c-23.292-23.292-56.564-39.928-93.162-39.928-33.272 0-66.548 13.308-93.162 39.928-23.292 23.292-36.6 56.564-36.6 93.162s13.31 66.548 36.6 93.162c23.292 23.292 56.564 39.928 93.162 39.928 33.272 0 66.548-13.308 93.162-39.928 23.292-23.292 36.6-56.564 36.6-93.162s-13.308-66.548-36.6-93.162zM192.574 334.87c9.982 0 19.962 9.982 19.962 19.962v93.162h116.458c9.982 0 19.964 9.982 19.964 19.964s-9.982 19.964-19.964 19.964h-116.456v96.492h3.33c86.512 9.982 149.73 79.858 149.73 166.368 0 93.162-76.53 166.368-166.368 166.368s-166.368-76.53-166.368-166.368c0-83.178 59.894-153.058 139.748-166.368h3.33v-99.82h-116.456c-9.982 0-19.964-9.982-19.964-19.964s3.33-16.638 16.638-16.638h116.458v-96.494c0-6.654 9.982-16.638 19.962-16.638zM69.466 754.112c0 69.874 56.564 126.438 126.436 126.438s126.438-56.566 126.438-126.438-56.564-126.438-126.438-126.438-126.436 56.566-126.436 126.438zM874.678 853.934l-771.938-768.612c-9.982-9.982-9.982-23.292 0-33.272s23.292-9.982 33.272 0l768.612 768.612c9.982 9.982 9.982 23.292 0 33.272-6.654 9.982-23.292 9.982-29.942 0z" />
<glyph unicode="&#xe60e;" glyph-name="TRACK-donated-sold" horiz-adv-x="944" d="M662.422 773.558c-3.226 3.226-3.226 9.67-6.446 12.894-22.564 35.456-77.362 51.57-116.040 12.894-9.67-9.67-16.118-19.34-25.788-29.008-3.226 3.226-3.226 6.446-6.446 9.67-16.118 29.008-41.902 48.35-74.138 51.572s-64.468 9.67-96.702 12.894c-3.226 0-6.446-3.226-6.446-6.446-3.226-32.232-6.446-61.244-9.67-93.478-3.226-25.788-3.226-54.798 3.226-80.58 0-6.446 3.226-9.67 6.446-16.118l-96.7-35.456c-6.446-3.226-6.446-9.67-3.224-12.894l61.244-93.478c3.226-6.446 9.67-6.446 16.118-3.226l80.58 67.69c0 0 0 0 0 0 25.788-16.118 58.022-22.564 87.032-25.788 80.58-3.226 148.274 54.798 157.944 135.38 3.226 12.894 3.226 29.008 6.446 41.902 3.226 16.118 9.67 29.006 25.788 35.456 3.226 0 3.226 3.226 6.446 3.226-3.226 6.446-6.446 9.67-9.67 12.894zM359.428 802.568c0 0 3.226 3.226 6.446 3.226 9.67 0 67.69-9.67 83.808-16.118 45.128-16.118 48.35-67.69 32.232-93.478-12.894-22.564-32.232-29.006-58.022-29.006-29.008 0-48.35 16.118-58.022 41.902-12.894 32.232-12.894 64.468-6.446 93.478zM359.428 596.274l-58.022-48.35-29.008 45.126 70.914 25.788c3.226-6.446 9.67-16.118 16.118-22.564zM601.178 725.208c0-16.118-3.226-29.006-6.446-45.126-12.894-51.572-45.126-83.808-96.702-93.478-54.798-12.894-99.92 9.67-128.932 58.022-3.226 6.446-6.446 12.894-9.67 19.338 16.118-6.446 29.008-16.118 41.902-19.338 29.008-9.67 58.022-6.446 80.58 16.118 16.118 16.118 29.008 32.232 35.458 54.798 3.226 12.894 9.67 25.788 12.894 38.68 6.446 16.118 16.118 25.788 32.232 32.232 19.338 9.67 41.902 6.446 58.022-12.894-12.894-12.894-16.118-29.006-19.34-48.35zM565.72 750.994c0-6.446 3.226-12.894 9.67-12.894s12.894 3.226 12.894 9.67c0 6.446-3.226 12.894-9.67 12.894-6.446 3.226-12.894-3.226-12.894-9.67zM585.060 341.63c-29.006 3.226-58.022 6.446-87.032 6.446-64.468 0-125.712 19.338-174.060 58.022 0 0 0 0 0 0s0 0 0 0c-16.118 9.67-32.232 22.564-45.128 32.232-12.892 6.446-22.564 16.118-35.456 22.564-54.796 38.68-116.040 41.902-180.508 12.892-29.008-12.894-61.244-25.788-93.478-41.902l-54.796-22.564v-38.68c6.446 3.226 9.67 3.226 9.67 3.226l58.022 25.788c32.232 12.894 61.244 25.788 93.478 41.902 54.796 22.564 99.92 19.338 145.052-9.67 12.894-9.67 22.564-16.118 35.458-25.788 16.118-9.67 29.008-19.338 45.128-32.232 0 0 0 0 0 0 54.796-41.902 122.486-64.47 196.622-64.47 29.006 0 54.798-3.226 83.808-6.446 9.67 0 12.894-6.446 12.894-12.894 3.226-16.118-6.446-19.34-9.67-19.34-16.118-6.446-32.232-9.67-45.126-12.894h-9.67c-54.798 0-109.594-3.226-164.39 0-35.456 3.226-67.69 16.118-103.146 32.232-6.446 3.226-16.118 6.446-29.008 6.446-9.67 0-19.338-6.446-19.338-16.118s6.446-19.338 16.118-19.338c6.446 0 12.894 0 16.118-3.226 38.68-16.118 74.138-32.232 116.040-35.456 25.788-3.226 51.572-3.226 77.362-3.226 29.008 0 61.244 0 90.25 0h9.67c19.338 0 41.902 6.446 58.022 12.894 22.564 9.67 35.456 29.006 32.232 58.022-3.226 35.456-19.34 48.35-45.126 51.572zM904.172 399.65c-3.226 16.118-16.118 32.232-35.456 38.68-16.118 6.446-32.232 9.67-48.35 6.446s-29.006-6.446-45.126-12.894c-9.67 19.338-25.788 38.68-64.47 35.456-19.338-3.226-35.456-9.67-51.572-12.894-3.226 0-9.67-3.226-12.894-3.226-22.564 19.338-48.35 25.788-74.138 16.118-32.232-12.892-61.244-29.008-93.478-45.128-12.892-6.446-25.788-12.894-38.68-19.34-9.67-3.226-12.894-16.118-6.446-22.564 3.226-9.67 16.118-12.894 22.564-6.446 12.892 6.446 25.788 12.894 38.68 19.338 29.006 16.118 58.022 32.232 90.25 45.126 19.34 9.67 32.232-6.446 38.68-12.894 3.226-6.446 12.894-6.446 19.338-6.446 9.67 3.226 16.118 6.446 25.788 6.446 16.118 6.446 32.232 9.67 45.126 12.894 16.118 3.226 22.564 0 29.006-25.788 0-3.226 3.226-9.67 9.67-9.67 3.226-3.226 9.67-3.226 12.894 0 6.446 3.226 12.894 3.226 16.118 6.446 12.894 3.226 25.788 9.67 38.68 12.894 6.446 3.226 19.338 0 25.788-3.226 9.67-3.226 12.894-9.67 16.118-16.118s0-12.894-6.446-19.338-19.338-22.564-32.232-29.006c-51.572-32.232-103.146-67.69-151.496-99.922-64.468-41.902-132.16-83.808-196.622-128.932-45.128-29.006-87.032-32.232-135.382-6.446-19.338 9.67-35.456 19.338-54.798 29.006-41.902 19.34-80.58 41.902-122.486 64.468-38.68 9.67-80.58 9.67-116.040-22.564-6.446-6.446-74.138-38.68-132.162-70.914v-38.68c106.37 54.798 145.052 77.362 154.722 80.58 25.79 19.34 51.57 22.564 83.81 3.226 38.68-22.564 80.58-41.902 122.486-64.47 19.338-9.67 35.456-19.338 54.796-29.006 61.244-32.232 116.040-29.006 170.838 6.446 64.47 41.902 128.932 87.032 196.622 128.932 51.572 32.232 103.146 67.69 151.496 99.922 16.118 9.67 29.006 22.564 41.902 38.68 9.67 19.34 16.118 38.68 12.894 54.798z" />
<glyph unicode="&#xe610;" glyph-name="TRACK-ornamental" d="M760.198 532.168c-3.226 3.226-6.446 9.67-9.67 12.894-29.006 35.456-96.702 48.35-135.38-3.226-9.67-12.894-16.118-25.788-25.788-35.456-3.226 3.226-3.226 6.446-6.446 9.67-22.564 29.008-54.798 48.352-93.478 51.572-38.68 0-77.362 0-116.040 0-6.446 0-9.67-3.226-9.67-9.67 0-35.458 0-74.138 0-109.594 0-22.564 3.226-41.902 6.446-64.47l-96.7-16.118c0 0-6.446 0-6.446-3.226-3.226-3.226 0-6.446 0-9.67 0 0 45.128-106.37 54.798-128.932 3.226-3.226 6.446-3.226 6.446-3.226l103.146 54.798c9.67-9.67 22.564-16.118 35.456-22.564 32.232-16.118 67.69-19.34 103.146-16.118 96.702 6.446 167.612 77.362 167.612 174.058 0 19.338 0 35.456 0 54.798s9.67 35.456 25.788 45.126c3.226 0 3.226 3.226 6.446 3.226-3.226 9.67-6.446 12.892-9.67 16.118zM402.406 522.496c0 3.226 3.226 6.446 6.446 6.446 12.892 0 80.58 0 99.92-6.446 54.798-12.894 64.468-70.914 51.572-103.146-9.67-29.006-35.456-38.68-61.244-41.902-32.232-3.226-58.022 12.894-74.138 41.902-19.338 32.232-22.564 67.69-22.564 103.146zM386.288 348.436c6.446-12.894 12.894-22.564 19.338-35.456l-64.468-35.456-19.338 61.244 64.468 9.67zM695.732 467.702c0-16.118 3.226-35.456 0-51.572-6.446-64.468-41.902-103.146-99.922-122.486-61.244-22.564-116.040-3.226-157.942 48.35-3.226 6.446-9.67 12.894-12.894 19.34h3.226c16.118-6.446 32.232-12.894 48.35-16.118 35.456-9.67 67.69 0 93.478 29.006 16.118 19.338 29.006 41.902 35.456 67.69 3.226 16.118 6.446 32.232 9.67 48.35 6.446 19.338 16.118 32.232 32.232 41.902 19.34 12.894 48.35 12.894 67.69-6.446-19.338-16.118-19.338-38.68-19.338-58.022zM663.496 509.604c-9.67 0-16.118-6.446-16.118-16.118s6.446-16.118 16.118-16.118c9.67 0 16.118 6.446 16.118 16.118s-9.67 16.118-16.118 16.118zM956.822-180.19h-41.902v254.646h-35.456v96.702h-90.25l25.788 32.232c0 0 96.702 125.712 96.702 248.198s-145.052 212.74-261.090 283.654c-22.564 12.894-45.126 29.006-64.47 41.902-29.006 19.34-58.022 64.47-77.362 93.478-19.338-32.232-48.35-74.138-77.362-93.478-19.338-12.892-41.902-25.788-64.468-41.902-116.040-74.138-261.090-164.39-261.090-283.654 0-122.486 96.7-244.974 96.7-248.198l25.79-32.232h-90.252v-96.702h-35.456v-254.646h-41.902v293.322h35.458v96.702h48.35c-32.232 48.35-83.808 141.828-83.808 238.526 0 145.052 154.722 241.752 280.428 319.112 22.564 12.894 45.128 29.008 64.468 41.902 29.008 19.338 70.914 87.032 83.81 109.594l22.564 38.68 19.34-35.456c12.894-22.564 51.572-90.25 83.808-109.594 19.338-12.894 41.902-25.788 64.47-41.902 125.712-77.362 280.428-174.058 280.428-319.112 0-96.702-51.572-190.176-83.808-238.526h48.35v-96.702h35.456v-296.546z" />
<glyph unicode="&#xe611;" glyph-name="TRACK-hunting" horiz-adv-x="880" d="M420.13 885.754c9.074 0 12.1-6.050 12.1-12.1s-6.050-12.1-15.126-12.1c-6.050 0-12.1 6.050-12.1 12.1 0 9.076 6.050 12.1 15.126 12.1zM861.784 132.52c-3.026 24.202-18.15 36.3-39.324 42.35 15.126 36.3-6.050 60.502-30.25 66.552-6.050 3.026-15.126 3.026-21.176 3.026-57.476 0-157.3 0-157.3 0l57.476 36.3c15.126 9.076 21.176 24.202 15.126 39.324l-6.050 15.126c-9.076 18.15-27.222 24.202-45.376 18.15s-42.35-15.126-63.526-24.202l-39.324 48.398c27.222 42.35 108.9 181.502 84.698 329.73-6.050 36.3-21.176 63.526-45.376 75.622-30.25 15.126-63.526 9.074-81.678 3.026-9.074 18.15-3.026 27.224 3.026 42.352 3.026 3.026 3.026 6.050 3.026 9.074 0 0 0 0 0 0 6.050 0 12.1 0 21.176 0 6.050 0 18.15 6.050 18.15 30.25-3.026 27.222-18.15 54.452-48.398 54.452 0 0-3.026 3.026-6.050 3.026-9.074 9.076-24.202 21.176-48.398 21.176-36.3 0-69.576-15.126-99.826-48.398-27.224-27.222-51.426-66.55-66.55-111.924-18.15 6.050-54.452 15.126-84.7-3.026-24.202-12.1-42.35-39.324-45.376-75.624-24.202-151.252 60.502-293.428 84.698-329.728l-45.376-75.624c-3.026-3.026-3.026-6.050-3.026-9.076-57.476 0-111.924 0-133.102 0-18.15 0-21.176-3.026-21.176-21.176 0-105.876 0-211.752 0-317.63 0-18.15 3.026-21.176 24.202-21.176 139.152 0 544.504 0 683.656 0 12.1 0 21.176 0 33.276 0 15.126 3.026 30.25 15.126 33.276 30.25 3.026 12.1 0 24.202 0 36.3 18.15 0 36.3 6.050 48.398 21.176 12.1 18.15 9.076 36.3 3.026 54.452 9.076 18.15 21.176 33.276 18.15 57.476zM547.178 752.654c15.126-6.050 24.202-24.202 27.222-48.398 24.202-160.326-84.7-311.58-87.726-314.602-6.050-6.050-6.050-15.126 0-21.176l42.35-51.426c-12.1-6.050-24.202-9.076-27.224-12.1-6.050-3.026-12.1-3.026-15.126-3.026 0 0-51.426 69.576-51.426 69.576 9.074 18.15 78.654 142.176 84.698 178.476 24.202 102.85 3.026 166.376-18.15 205.702 15.126 3.026 33.276 3.026 45.376-3.026zM441.3 298.898c-12.1 0-27.224 0-42.35 0l18.15 33.276 24.202-33.276zM486.678 556.030c-6.050-24.202-51.426-111.924-81.678-169.402 0 0 0 0-3.026-3.026l-33.276-66.552-36.3 66.552c0 0 0 3.026 0 3.026s-66.55 117.976-66.55 223.852c0 33.276 3.026 69.576 9.074 102.85l27.224-36.3c3.026-6.050 9.074-9.076 15.126-9.076s12.1 3.026 15.126 9.076l36.3 51.426 36.3-51.426c3.026-6.050 9.074-9.076 15.126-9.076s12.1 3.026 15.126 6.050l42.35 54.452c15.126-36.3 27.224-87.726 9.074-172.428zM338.454 298.898c-12.1 0-27.224 0-42.35 0l21.176 39.324 21.176-39.324zM353.576 876.678c24.202 24.202 48.398 36.3 72.602 36.3 12.1 0 18.15-6.050 24.202-12.1s15.126-15.126 30.25-15.126c3.026 0 3.026 0 6.050-3.026s3.026-6.050 6.050-9.076c-9.074 0-27.224 0-33.276-18.15 0-3.026-3.026-6.050-3.026-9.074-9.074-18.15-21.176-45.376 3.026-84.7 0 0 0 0 0 0l-36.3-45.376-36.3 51.426c-3.026 6.050-9.074 9.074-15.126 9.074s-12.1-3.026-15.126-9.074l-36.3-51.426-30.25 42.35c12.1 48.398 36.3 90.752 63.526 117.976zM250.728 371.498c3.026 6.050 3.026 15.126 0 21.176 0 3.026-111.924 154.276-87.728 314.602 3.026 24.202 12.1 42.35 27.224 48.398 18.15 9.074 42.35 3.026 54.452 0 0 0 0 0 0-3.026v0c-12.1-45.376-21.176-93.774-18.15-142.176 3.026-99.826 51.426-202.676 66.552-232.928l-42.35-75.624c-15.126 0-33.276 0-48.398 0l48.398 69.576zM825.484 108.322c-6.050-3.026-15.126-6.050-21.176-6.050-51.426 0-105.876 0-157.3 0-3.026 0-6.050 0-12.1 0-9.076 0-12.1-6.050-12.1-12.1s6.050-9.076 9.076-12.1c3.026-3.026 9.076 0 12.1-3.026 45.376 0 93.774 0 139.15 0 6.050 0 12.1 0 21.176-3.026s12.1-9.076 9.076-18.15c0-6.050-6.050-12.1-9.076-18.15-6.050-3.026-12.1-6.050-21.176-6.050-48.398 0-99.826 0-148.226 0-3.026 0-6.050 0-9.076 0-9.076 0-15.126-6.050-15.126-15.126s6.050-12.1 15.126-12.1c30.25 0 63.526 0 93.774 0 6.050 0 12.1 0 21.176-3.026 12.1-3.026 15.126-9.076 15.126-21.176s-3.026-15.126-18.15-15.126c-3.026 0-6.050 0-12.1 0-139.15 0-541.48 0-680.632 0-3.026 0-6.050 0-9.076 0 0 45.376 0 90.752 0 136.128 3.026 0 9.076 0 12.1 0 33.276 0 66.55 0 99.826 0 12.1 0 21.176 3.026 21.176 15.126 0 9.076-6.050 15.126-21.176 15.126-33.276 0-66.552 0-96.8 0-3.026 0-9.076 0-12.1 0 0 48.398 0 93.774 0 142.176 3.026 0 9.074 0 12.1 0 27.222 0 102.852 0 187.552 0l-21.176-36.3c-6.050-9.076-3.026-21.176 6.050-24.202 3.026-3.026 6.050-3.026 9.074-3.026 6.050 0 12.1 3.026 15.126 9.076l30.248 54.452c21.176 0 45.376 0 66.55 0l-15.126-33.276c-6.050-9.076 0-21.176 9.074-24.202 3.026 0 6.050-3.026 9.074-3.026 6.050 0 12.1 3.026 15.126 9.076l24.202 48.398c48.398 0 87.728 0 102.85 0 9.074 0 15.126 3.026 24.202 6.050 15.126 6.050 87.726 36.3 117.976 48.398 9.076 3.026 15.126 6.050 21.176-6.050 6.050-9.076 0-15.126-9.076-21.176-27.222-18.15-75.624-45.376-87.726-54.452-6.050-6.050-15.126-9.076-12.1-21.176 3.026-9.076 12.1-9.076 21.176-9.076 72.602 0 130.076 0 202.676 0 6.050 0 15.126 0 21.176-3.026 15.126-3.026 18.15-18.15 6.050-27.222-6.050-6.050-15.126-9.076-21.176-9.076-45.376 0-90.752 0-136.128 0-9.076 0-15.126-3.026-15.126-12.1 0-6.050 3.026-12.1 6.050-15.126s9.076-3.026 12.1-3.026c54.452 0 108.9 0 163.35 0 6.050 0 15.126-3.026 18.15-6.050 18.15 0 18.15-18.15 3.026-27.222z" />
<glyph unicode="&#xe612;" glyph-name="TRACK-cynegetic" d="M961.188 471.292h-49.91c-13.308 202.964-173.020 362.68-375.986 375.986v66.548c0 13.308-9.982 23.292-23.292 23.292s-23.292-9.982-23.292-23.292v-66.548c-202.966-13.31-362.678-173.020-375.986-375.986h-66.55c-13.308 0-23.292-9.982-23.292-23.292s9.982-23.292 23.292-23.292h66.55c13.308-202.966 173.020-362.678 375.986-375.986v-83.178c0-13.308 9.982-23.292 23.292-23.292s23.292 9.982 23.292 23.292v83.178c202.966 13.308 362.678 173.020 375.986 375.986h53.236c13.308 0 23.292 9.982 23.292 23.292s-13.308 23.292-26.62 23.292zM804.804 421.38h59.894c-13.308-176.35-153.058-316.096-326.076-326.076v53.236c0 13.308-9.982 23.292-23.292 23.292s-23.292-9.982-23.292-23.292v-53.236c-176.348 13.308-316.096 153.058-326.076 326.076h39.928c13.308 0 23.292 9.982 23.292 23.292s-9.982 23.292-23.292 23.292h-39.928c13.308 176.35 153.058 316.096 326.076 326.076v-136.424c0-13.31 9.982-23.292 23.292-23.292s23.292 9.982 23.292 23.292v136.424c176.35-13.308 316.096-153.056 326.076-326.076h-59.894c-13.308 0-23.292-9.982-23.292-23.292s9.982-23.292 23.292-23.292zM711.64 521.202c-3.328 3.328-3.328 9.982-6.654 13.308-23.292 36.602-79.858 53.236-119.784 13.31-9.982-9.982-16.638-19.964-26.62-29.942-3.328 3.33-3.328 6.654-6.654 9.982-16.638 29.942-43.254 49.91-76.53 53.236s-66.548 9.982-99.82 13.308c-3.33 0-6.654-3.328-6.654-6.654-3.33-33.272-6.654-63.22-9.982-96.492-3.33-26.62-3.33-56.566 3.33-83.178 0-6.654 3.33-9.982 6.654-16.638l-99.82-36.6c-6.654-3.328-6.654-9.982-3.33-13.308l63.22-96.494c3.33-6.654 9.982-6.654 16.638-3.328l83.18 69.874c0 0 0 0 0 0 26.62-16.638 59.894-23.292 89.84-26.62 83.178-3.328 153.058 56.564 163.038 139.748 3.328 13.308 3.328 29.942 6.654 43.254 3.328 16.638 9.982 29.942 26.62 36.6 3.328 0 3.328 3.33 6.654 3.33-3.328 3.33-6.654 9.982-9.982 13.31zM398.87 551.144c0 0 3.33 3.328 6.654 3.328 9.982 0 69.874-9.982 86.514-16.638 46.582-16.638 49.912-69.874 33.272-96.492-13.308-23.292-33.272-29.942-59.894-29.942-29.942 0-49.912 16.638-59.894 43.254-13.31 29.942-13.31 63.22-6.654 96.494zM398.87 334.87l-59.894-49.91-29.942 46.582 73.202 26.62c6.654-6.654 9.982-13.308 16.638-23.292zM648.424 467.964c0-16.638-3.328-29.944-6.654-46.584-13.308-53.236-46.582-86.514-99.82-96.494-56.564-13.308-103.144 9.982-133.092 59.894-3.33 6.654-6.654 13.308-9.982 19.962 16.638-6.654 29.942-16.638 43.254-19.962 29.942-9.982 59.894-6.654 83.178 16.638 16.638 16.638 29.942 33.272 36.6 56.564 3.328 13.31 9.982 26.62 13.308 39.928 6.654 16.638 16.638 26.62 33.272 33.272 19.962 9.982 43.254 6.654 59.894-13.308-13.308-13.31-16.638-29.944-19.962-49.912zM611.82 497.912c0-6.654 3.328-13.31 9.982-13.31s13.308 3.33 13.308 9.982c0 6.654-3.328 13.31-9.982 13.31s-13.308-3.33-13.308-9.982z" />
<glyph unicode="&#xe613;" glyph-name="TRACK-confiscated" horiz-adv-x="1152" d="M662.514 18.774c-3.328 3.328-9.982 3.328-13.308 3.328-86.514-16.638-176.348-3.328-256.204 33.272l-6.654 3.328c-9.982 6.654-23.292 9.982-29.942 16.638l-9.982 6.654c-13.31 6.654-19.964 13.308-26.62 16.638-3.33 3.328-6.654 6.654-13.31 9.982-9.982 6.654-16.638 13.308-23.292 16.638l-6.654 6.654c-9.982 9.982-16.638 16.638-23.292 23.292l-3.33 6.654c-9.982 9.982-16.638 19.962-23.292 26.62-26.622 36.6-43.254 69.874-59.894 109.802-3.33 13.308-9.982 26.62-13.308 39.928l3.33 9.982c-19.962 89.84-13.308 179.674 23.292 262.86l33.272-106.474c3.33-9.982 13.308-16.638 26.622-13.31 0 0 0 0 0 0 9.982 3.33 13.308 13.31 9.982 23.292l-59.894 186.332-173.020-86.514c-9.982-6.654-13.308-16.638-9.982-26.62 6.654-9.982 16.638-13.31 26.62-9.982l96.494 49.91c-33.272-83.178-43.254-169.692-29.942-259.532v-6.654c0-3.328 3.328-9.982 3.328-13.308l6.654-23.292c3.328-9.982 6.654-23.292 13.308-39.928 16.638-46.582 36.6-86.514 63.22-123.11 9.982-13.308 16.638-23.292 26.622-33.272l6.654-6.654c6.654-6.654 13.308-13.308 23.292-23.292l13.308-9.982c6.654-6.654 13.31-9.982 23.292-16.638 6.654-6.654 9.982-9.982 16.638-13.308l6.654-6.654c3.33-3.328 9.982-6.654 13.31-9.982l13.31-6.654c16.638-9.982 29.942-16.638 46.584-23.292 89.838-43.254 186.332-56.564 286.15-39.928 13.308 3.328 23.292 16.638 19.962 29.942-6.654 6.654-13.308 13.308-19.962 16.638zM1144.97 304.924c-6.654 9.982-16.638 13.308-26.622 9.982l-99.82-49.912c33.272 83.178 46.584 173.020 29.942 259.532v6.654c0 6.654-3.328 16.638-6.654 26.622v6.654c-19.962 73.202-53.236 143.074-106.472 199.64l-3.328 3.33c-6.654 6.654-13.308 16.638-26.62 26.62l-9.982 9.982c-6.654 6.654-16.638 13.31-23.292 19.964l-19.962 16.638c-3.328 3.328-6.654 3.328-9.982 6.654l-23.292 13.308c-9.982 6.654-19.962 9.982-33.272 16.638l-6.654 3.33c-89.838 43.254-189.658 56.564-286.15 39.928-6.654 0-13.31-3.33-16.638-9.982s-6.654-13.31-3.33-16.638c0-6.654 6.654-13.308 13.31-16.638 3.33-3.328 9.982-3.328 13.31-3.328 86.514 16.638 176.35 3.328 256.204-33.272 13.308-6.654 26.62-13.308 36.6-19.962l6.654-3.33c13.308-6.654 19.962-13.308 29.942-19.962l9.982-6.654c9.982-9.982 19.962-13.308 26.62-19.962l3.328-3.328c13.308-9.982 19.962-19.964 26.62-26.622 46.582-53.234 79.858-116.456 96.494-183 23.292-89.838 16.638-186.332-19.962-269.512l-33.272 103.144c-3.328 9.982-13.308 16.638-26.62 13.308 0 0 0 0 0 0-9.982-3.328-13.308-13.308-9.982-23.292l59.894-186.332 173.020 89.838c9.982-3.328 13.308 9.982 9.982 19.962zM822.222 561.13c-3.328 6.654-6.654 9.982-6.654 16.638-26.62 39.928-93.162 63.22-143.076 16.638-9.982-9.982-19.962-23.292-29.942-36.6-3.328 3.33-3.328 6.654-6.654 9.982-19.962 33.272-49.912 56.564-89.838 63.22s-79.858 9.982-119.784 16.638c-3.33 0-9.982-3.33-9.982-6.654-3.33-36.602-9.982-76.53-13.31-113.13-3.33-33.272-3.33-66.548 6.654-96.492 3.33-6.654 3.33-13.308 6.654-16.638l-116.456-43.254c-6.654-3.328-9.982-9.982-6.654-13.308l76.53-116.456c3.33-3.328 9.982-6.654 13.31-3.328l103.144 83.178c0 0 0 0 0 0 33.272-19.962 69.874-29.942 106.474-29.942 96.494-6.654 179.674 66.548 192.986 163.038 3.328 16.638 3.328 33.272 6.654 53.236s13.308 33.272 33.272 43.254c3.328 0 3.328 3.328 6.654 3.328-3.328 0-9.982 3.33-9.982 6.654zM449.562 597.73c0 3.328 3.33 3.328 6.654 3.328 13.31 0 83.178-9.982 103.144-16.638 53.236-19.962 59.894-79.858 39.928-113.13-13.308-26.62-39.928-36.6-69.874-36.6-36.6 0-56.564 19.964-69.874 53.236-16.638 33.272-16.638 69.874-9.982 109.802zM452.892 344.856l-73.202-59.894-33.272 53.236 86.514 33.272c6.654-9.982 13.31-16.638 19.964-26.62zM745.692 501.236c0-16.638-3.328-36.6-6.654-53.236-13.308-63.22-56.566-99.82-119.784-116.456-66.548-13.308-119.784 9.982-156.384 69.874-3.33 6.654-6.654 13.308-9.982 23.292 19.964-9.982 33.272-16.638 49.912-23.292 36.602-13.308 69.874-9.982 99.82 16.638 19.962 19.962 36.6 39.928 46.582 66.548 6.654 16.638 9.982 33.272 16.638 46.582 6.654 16.638 19.962 29.942 36.6 39.928 23.292 13.308 53.236 6.654 69.874-13.308-19.962-13.31-23.292-33.272-26.62-56.566zM702.438 534.512c0-6.654 6.654-16.638 13.308-16.638s16.638 6.654 16.638 13.308c0 6.654-6.654 16.638-13.308 16.638-9.982 0-16.638-3.33-16.638-13.31z" />
<glyph unicode="&#xe614;" glyph-name="TRACK-centralised" d="M508.67-37.79v0zM851.386 794.040c-93.162 93.162-212.948 143.076-342.714 143.076-269.512 0-489.114-219.602-489.114-489.114 0-266.188 216.276-482.462 479.134-485.79v-3.328h9.982v3.328c269.512 3.328 482.462 219.602 482.462 485.79 0 129.766-49.912 252.874-139.748 346.040zM808.13 471.292v-13.31c0-3.33 0-6.654 0-9.982s0-6.654-3.328-13.308l-3.328-9.982h146.404v-3.328c-3.328-83.178-33.272-163.038-79.858-229.586v0l-123.11 66.548v3.328c6.654 16.638 9.982 33.272 13.308 56.566l3.328 23.292-13.308-19.962c-23.292-29.942-49.91-56.564-83.178-73.202l-9.982-6.654 9.982-3.328c6.654-3.328 13.308-3.328 16.638-6.654h3.328v-3.328c-36.6-83.178-86.514-153.058-153.058-212.948l-3.328-3.328v199.64h-9.982c-9.982 0-16.638 0-29.942 3.328h-6.654v-202.966h-3.33c-56.564 49.912-99.82 106.472-136.424 176.348l-3.33 6.654-36.6-29.942 3.33-3.328c26.62-49.912 59.894-96.492 99.82-139.748l3.33-6.654h-6.654c-89.838 23.292-166.368 66.548-229.586 136.424l-3.33 3.328 36.6 19.962-19.962 39.928-39.928-23.292c-46.582 66.548-76.53 143.076-79.858 229.586v3.328h192.986v6.654c-3.33 9.982-3.33 23.292-3.33 33.272v3.33h-186.33v3.33c6.654 86.512 29.942 163.038 79.858 232.914v0 0c3.33-3.33 6.654-3.33 9.982-6.654l6.654-3.33c13.308-6.654 23.292-13.31 33.272-19.964s23.292-9.982 33.272-16.638c6.654-3.328 16.638-6.654 23.292-9.982l6.654-3.328v6.654c0 9.982 3.33 23.292 3.33 33.272v3.328l-93.162 49.912 3.33 3.328c66.55 73.202 139.748 116.458 232.914 136.424h6.654l-3.33-3.33c-36.6-43.254-69.874-83.178-93.162-129.766l-6.654-6.654h6.654c0 0 3.33 0 3.33 0 6.654 0 13.31-3.33 23.292-3.33h13.31v3.33c33.272 56.564 69.874 103.144 119.784 146.404l3.33 3.328v-166.368h3.33c13.31-3.328 23.292-6.654 33.272-13.308l6.654-3.328v183l3.328-3.328c56.564-49.912 103.144-106.474 136.424-176.35l3.328-3.33h3.328c13.308 3.33 23.292 3.33 33.272 3.33h13.308l-3.328 6.654c-29.942 59.894-66.548 113.13-113.13 166.368h3.328c89.84-19.964 166.368-66.55 232.914-136.424l3.328-3.328-86.514-46.582 9.982-3.33c9.982-6.654 23.292-9.982 33.272-19.964l3.328-3.328 69.874 36.6c46.582-66.548 73.202-143.074 79.858-229.586v-3.33h-143.076zM605.162 22.102c53.236 59.894 96.492 123.11 123.11 192.986v3.328l109.802-56.566-3.328-3.328c-63.22-69.874-139.748-116.456-229.586-136.424v0zM661.73 564.456c0 9.982 9.982 16.638 19.962 16.638s16.638-9.982 16.638-19.964c0-9.982-9.982-16.638-19.962-16.638s-19.962 9.982-16.638 19.964zM794.822 584.424c-3.328 6.654-6.654 13.308-9.982 19.962-16.638 29.942-53.236 49.912-93.162 49.912-26.62 0-53.236-9.982-76.53-33.272-13.308-13.31-23.292-26.622-36.6-39.928-3.328 3.33-3.328 9.982-6.654 13.31-23.292 39.928-59.894 69.874-106.474 76.53s-93.162 9.982-139.748 16.638c0 0 0 0 0 0-6.654 0-9.982-3.33-9.982-9.982-6.654-46.582-9.982-89.84-16.638-136.424-3.33-39.928-3.33-76.53 6.654-116.456 3.33-6.654 6.654-13.308 6.654-19.962l-136.424-53.236c-9.982-3.328-13.308-13.308-6.654-23.292l86.514-126.438c3.33-3.328 9.982-6.654 13.31-6.654s6.654 0 9.982 3.328l116.456 96.494c0 0 0 0 0 0 36.6-23.292 79.858-33.272 123.11-36.6 3.328 0 9.982 0 13.308 0 109.802 0 202.966 86.514 219.602 196.312 3.328 19.964 3.328 39.928 6.654 59.894 3.328 23.292 16.638 39.928 36.6 49.912 3.328 0 6.654 3.328 9.982 3.328-3.328 6.654-6.654 13.308-9.982 16.638zM355.618 624.348c0 3.33 6.654 6.654 6.654 6.654s0 0 0 0c16.638 0 96.492-13.308 119.784-19.962 63.22-23.292 69.874-96.492 46.584-133.092-16.638-29.942-46.582-43.254-76.53-43.254 0 0-3.33 0-3.33 0-39.928 0-69.874 26.62-83.18 63.22-19.964 39.928-16.638 83.178-9.982 126.438zM272.43 258.342l-39.928 63.22 103.144 36.6c6.654-13.308 16.638-23.292 23.292-33.272l-86.514-66.548zM708.312 511.22c-3.328-19.964-3.328-43.254-6.654-63.22-16.638-76.53-66.548-119.784-139.748-136.424-13.308-3.328-26.62-3.328-39.928-3.328-59.894 0-109.802 29.942-143.074 86.514-3.33 6.654-9.982 16.638-13.31 26.62 23.292-9.982 39.928-19.962 59.894-29.942 16.638-6.654 29.942-9.982 46.582-9.982 26.62 0 49.912 9.982 73.202 29.942 23.292 23.292 43.254 49.912 53.236 79.858 6.654 19.964 13.308 36.602 19.962 56.564 9.982 19.962 23.292 36.6 43.254 46.582 9.982 3.33 19.962 6.654 29.942 6.654 19.962 0 39.928-9.982 53.236-23.292-33.272-13.308-36.6-39.928-36.6-66.548z" />
<glyph unicode="&#xe615;" glyph-name="TRACK-escaped-lost-disappeared" d="M865.77 801.77c-92.736 96.168-219.816 147.69-353.77 147.69-274.774 0-498.024-226.686-501.462-501.462 0-274.774 219.816-494.592 494.592-498.024v-3.436h10.304v3.436c274.774 3.436 494.592 226.686 494.592 498.024 0 133.952-51.52 257.598-144.256 353.77zM882.942 712.47v0c51.52-72.128 79-151.126 82.434-236.992v-3.436h-178.6v3.436c0 6.87 0 10.304 0 17.176 0 13.738-3.436 27.48-3.436 37.782-6.87 27.48-13.738 58.39-17.174 85.862l-3.436 20.606c0 6.87-3.436 10.304 3.436 13.738 27.48 13.738 54.952 27.48 82.434 41.216l34.346 20.606zM615.040 891.072c92.736-20.608 171.736-65.26 240.426-140.826l3.436-3.436-120.214-58.39v3.436c-30.908 72.128-72.128 133.952-127.080 195.778l-3.436 3.436h6.87zM171.968 750.25c68.696 72.128 144.256 120.214 240.426 140.824h6.87l-3.436-3.436c-58.39-61.826-99.606-127.080-127.080-195.776v-3.436l-116.778 61.826zM58.626 475.48c6.868 89.304 30.908 164.864 82.434 236.99v0 0c3.436-3.436 6.868-3.436 10.304-6.868l3.436-3.436c13.738-6.87 24.044-13.738 34.344-20.606s24.044-10.304 34.344-17.176h3.436c10.304-3.436 17.176-6.868 24.044-13.738 3.436-3.436 6.868-10.304 6.868-13.738-17.176-51.522-27.48-106.472-27.48-161.428 0 0 0-3.436 0-3.436v-3.436l-171.736 6.868zM141.058 183.53v0c-51.522 72.128-78.998 151.126-82.434 236.99v3.436h178.6v-3.436c3.436-61.826 13.738-120.214 30.908-171.736v0l-127.080-65.26zM408.96 4.928c-92.738 24.044-171.736 68.696-236.992 140.824l-3.436 3.436 113.344 58.39v-3.436c30.908-72.128 72.128-137.384 127.080-195.776l3.436-6.87-3.436 3.436zM539.48 1.496l-3.436-3.436v168.298c0 0 0 0 0 0h-44.65v-168.298l-3.436 3.436c-68.696 58.39-123.646 130.516-157.994 219.816v3.436h3.436c30.908 10.304 61.826 17.174 92.738 20.606v37.782c0 3.436 0 3.436 0 6.87l-113.344-20.606c-13.738 24.044-30.908 123.648-27.48 154.562v3.436h144.256v44.65h-144.256v3.436c-3.436 30.908 13.738 123.646 27.48 154.56v0l20.606-3.436v51.52c0 0 0 0-3.436 0v0 0c37.782 82.434 89.304 154.562 157.994 212.95l3.436 3.436v-188.904c13.738 0 30.91 0 48.086 0v188.904l3.436-3.436c68.696-58.39 120.214-130.516 157.994-216.382v-3.436h-3.436c-6.87-3.436-10.304-3.436-17.174-3.436l-6.87-3.436c13.738-10.304 24.044-24.042 34.346-41.216l10.304 3.436v-3.436c17.174-51.522 27.48-103.040 27.48-154.562v-3.436h-17.174c-3.436-17.176-6.87-30.91-10.304-44.648h27.48v-3.436c3.436-30.908-13.738-127.080-27.48-154.562v0l-120.214 20.606c0-3.436 0-3.436 0-6.87v-37.782c41.216-6.87 79-13.738 103.040-24.044h3.436v-3.436c-44.65-79-96.168-151.126-164.864-209.512zM852.032 145.75c-65.26-72.128-144.256-116.778-236.99-140.826h-6.87l3.436 6.87c54.952 61.826 96.168 127.080 127.080 195.776v3.436l113.344-65.26zM965.376 423.956c-3.436-85.862-34.346-168.298-82.434-236.99v0l-123.648 65.26c17.174 54.952 27.48 109.908 30.908 171.736v3.436l175.168-3.436zM680.298 499.522v44.65c0 58.39-37.782 120.214-130.516 120.214-10.304 0-20.606 0-30.908 0-54.952 0-92.736-6.87-140.824-17.174v-61.826h151.126c44.65 0 65.26-13.738 65.26-51.522v-34.346c0-34.346-24.044-48.086-51.52-48.086h-68.696v-120.214h68.696v54.952c6.87 0 13.738 0 24.044 0 75.562 0 113.344 37.782 113.344 113.344zM481.092 211.010h51.52c6.87 0 13.738 3.436 13.738 13.738v54.952c0 10.304-3.436 13.738-13.738 13.738h-51.522c-10.304 0-13.738-6.87-13.738-13.738v-54.952c0-6.87 6.87-13.738 13.738-13.738z" />
<glyph unicode="&#xe616;" glyph-name="TRACK-released" d="M854.716 936.48c26.62 0 53.236-13.308 66.548-29.942 3.328-3.33 6.654-9.982 9.982-13.308s6.654-6.654 13.308-13.31c-3.328 0-3.328-3.328-6.654-3.328-16.638-9.982-26.62-23.292-23.292-43.254 0-16.638 0-36.6 0-53.234 0-93.162-69.874-163.038-163.038-169.694-6.654 0-9.982 0-16.638 0-29.942 0-56.564 3.33-83.178 16.638-13.308 6.654-23.292 13.308-33.272 23.292l-99.82-53.236c0 0 0 0-3.328 0 0 0-3.328 0-3.328 3.33-9.982 23.292-53.236 126.436-53.236 126.436s-3.33 6.654 0 6.654c0 3.33 6.654 3.33 6.654 3.33l93.162 16.638c-3.328 19.962-6.654 39.928-6.654 59.894 0 36.6 0 69.874 0 106.472 0 6.654 3.328 6.654 6.654 6.654 0 0 0 0 0 0 6.654 0 9.982 0 16.638 0 16.638 0 33.272 0 49.912 0 13.308 0 29.942 0 43.254 0 36.6 0 66.548-19.962 89.84-49.91 3.328-3.33 3.328-6.654 6.654-9.982 6.654 13.31 13.308 23.292 23.292 36.6 19.962 23.292 43.254 33.272 66.548 33.272zM685.020 703.57c-6.654 0-16.638 0-26.62 3.33-16.638 3.33-29.942 9.982-46.582 16.638h-3.328c3.328-6.654 6.654-13.308 13.308-16.638 26.62-36.6 63.22-56.564 103.144-56.564 16.638 0 29.942 3.328 46.582 9.982 56.564 19.962 89.84 59.894 96.494 119.784 0 16.638 0 33.272 0 49.91 0 19.964 0 39.928 19.962 53.236-9.982 9.982-23.292 13.31-36.6 13.31-9.982 0-19.962-3.33-29.942-9.982-13.308-9.982-26.62-23.292-29.942-39.928-3.328-13.308-6.654-29.942-9.982-46.582-6.654-26.62-16.638-46.582-33.272-66.548-16.638-23.292-39.928-29.944-63.22-29.944zM668.384 740.164c3.328 0 3.328 0 6.654 0 26.62 3.33 49.912 13.308 59.894 39.928 13.308 33.272 0 86.514-49.912 99.82-13.308 3.328-56.566 6.654-79.858 6.654-6.654 0-13.308 0-16.638 0s-6.654-3.33-6.654-3.33c0-36.6 0-69.874 19.962-99.82 16.638-26.62 39.928-43.254 66.548-43.254zM528.638 647l59.894 33.272c-6.654 9.982-13.308 19.964-19.962 33.272l-63.22-9.982 23.292-56.564zM834.75 866.602c-6.654 0-13.308-6.654-13.308-13.308s6.654-13.308 16.638-13.308c6.654 0 13.308 6.654 13.308 13.308 0 9.982-6.654 16.638-16.638 13.308zM492.036 457.346h-232.914c-96.492 0-176.348-79.858-176.348-176.348v-292.804h126.438v-16.638c0-6.654 3.33-13.308 9.982-19.962 3.33-3.328 6.654-3.328 13.308-3.328 3.33 0 6.654 0 9.982 3.328l83.18 39.928h349.37v292.804c-6.654 93.162-86.514 173.020-183 173.020zM292.398 31.448v-9.982l-43.254-19.962v316.096l43.254-33.272v-252.876zM462.088 31.448h-123.108v242.894h123.108v-242.894zM625.13 31.448h-119.784v266.188c0 13.308-9.982 23.292-23.292 23.292h-159.712l-79.858 63.22c-6.654 6.654-16.638 6.654-23.292 3.328s-13.308-9.982-13.308-19.962v-332.734h-79.858v249.548c0 73.202 59.894 133.092 133.092 133.092h232.914c73.202 0 133.092-59.894 133.092-133.092v-252.876z" />
<glyph unicode="&#xe617;" glyph-name="TRACK-to_release" d="M718.294 567.144c-3.328 3.328-9.982 6.654-16.638 3.328l-136.424-23.292c-9.982-3.328-16.638-13.308-16.638-23.292 3.328-9.982 13.308-16.638 23.292-16.638l83.178 13.31-79.858-86.514c-23.292 13.308-53.236 19.964-79.858 19.964h-232.914c-96.492 0-176.348-79.858-176.348-176.348v-292.804h585.61v292.804c0 53.236-23.292 99.82-59.894 133.092l76.53 79.858v-79.858c0-9.982 9.982-19.962 19.962-19.962 0 0 0 0 0 0 9.982 0 19.962 9.982 19.962 19.962v139.748c-3.328 6.654-3.328 13.31-9.982 16.638zM282.416 294.308v-262.86h-156.384v249.548c0 73.202 59.894 133.092 133.092 133.092h232.914c16.638 0 33.272-3.328 49.912-9.982l-79.858-86.514h-156.382c-13.31 0-23.292-9.982-23.292-23.292zM452.106 31.448h-123.108v242.894h123.108v-242.894zM625.13 277.668v-246.222h-129.766v256.204l86.514 93.162c26.62-26.62 43.254-63.22 43.254-103.144zM854.716 936.48c26.62 0 53.236-13.308 66.548-29.942 3.328-3.33 6.654-9.982 9.982-13.308s6.654-6.654 13.308-13.31c-3.328 0-3.328-3.328-6.654-3.328-16.638-9.982-26.62-23.292-23.292-43.254 0-16.638 0-36.6 0-53.234 0-93.162-69.874-163.038-163.038-169.694-6.654 0-9.982 0-16.638 0-29.942 0-56.564 3.33-83.178 16.638-13.308 6.654-23.292 13.308-33.272 23.292l-99.82-53.236c0 0 0 0-3.328 0 0 0-3.328 0-3.328 3.33-9.982 23.292-53.236 126.436-53.236 126.436s-3.33 6.654 0 6.654c0 3.33 6.654 3.33 6.654 3.33l93.162 16.638c-3.328 19.962-6.654 39.928-6.654 59.894 0 36.6 0 69.874 0 106.472 0 6.654 3.328 6.654 6.654 6.654 0 0 0 0 0 0 6.654 0 9.982 0 16.638 0 16.638 0 33.272 0 49.912 0 13.308 0 29.942 0 43.254 0 36.6 0 66.548-19.962 89.84-49.91 3.328-3.33 3.328-6.654 6.654-9.982 6.654 13.31 13.308 23.292 23.292 36.6 19.962 23.292 43.254 33.272 66.548 33.272zM685.020 703.57c-6.654 0-16.638 0-26.62 3.33-16.638 3.33-29.942 9.982-46.582 16.638h-3.328c3.328-6.654 6.654-13.308 13.308-16.638 26.62-36.6 63.22-56.564 103.144-56.564 16.638 0 29.942 3.328 46.582 9.982 56.564 19.962 89.84 59.894 96.494 119.784 0 16.638 0 33.272 0 49.91 0 19.964 0 39.928 19.962 53.236-9.982 9.982-23.292 13.31-36.6 13.31-9.982 0-19.962-3.33-29.942-9.982-13.308-9.982-26.62-23.292-29.942-39.928-3.328-13.308-6.654-29.942-9.982-46.582-6.654-26.62-16.638-46.582-33.272-66.548-16.638-23.292-39.928-29.944-63.22-29.944zM668.384 740.164c3.328 0 3.328 0 6.654 0 26.62 3.33 49.912 13.308 59.894 39.928 13.308 33.272 0 86.514-49.912 99.82-13.308 3.328-56.566 6.654-79.858 6.654-6.654 0-13.308 0-16.638 0s-6.654-3.33-6.654-3.33c0-36.6 0-69.874 19.962-99.82 16.638-26.62 39.928-43.254 66.548-43.254zM528.638 647l59.894 33.272c-6.654 9.982-13.308 19.964-19.962 33.272l-63.22-9.982 23.292-56.564zM834.75 866.602c-6.654 0-13.308-6.654-13.308-13.308s6.654-13.308 16.638-13.308c6.654 0 13.308 6.654 13.308 13.308 0 9.982-6.654 16.638-16.638 13.308z" />
<glyph unicode="&#xe618;" glyph-name="TRACK-excess" d="M695 547.82c-19.962 33.272-76.53 53.236-119.784 13.31-9.982-9.982-16.638-19.964-26.62-29.942-3.328 3.33-3.328 6.654-6.654 9.982-16.638 29.942-43.254 49.91-76.53 53.236s-66.548 6.654-99.82 13.308c-3.33 0-6.654-3.328-6.654-6.654-3.33-33.272-6.654-63.22-9.982-96.492-3.33-26.62-3.33-56.564 3.33-83.178 0-6.654 3.33-9.982 6.654-16.638l-99.82-36.6c-6.654-3.328-6.654-9.982-3.33-13.308l63.22-89.84c3.33-6.654 13.31-6.654 16.638-3.328l83.18 66.548c0 0 0 0 0 0 26.62-16.638 56.564-23.292 89.838-26.62 83.18-6.654 153.056 56.564 163.038 139.748 3.328 13.31 3.328 29.942 6.654 43.254 3.328 16.638 9.982 29.942 26.62 36.6 3.328 0 3.328 3.328 6.654 3.328-3.328 3.33-6.654 6.654-9.982 13.31-3.328 0-3.328 6.654-6.654 9.982zM388.892 564.456c0 0 3.33 3.33 6.654 3.33 9.982 0 69.874-9.982 86.512-13.31 46.582-16.638 49.912-69.874 33.272-96.492-13.31-23.292-33.272-29.944-59.894-29.944-29.942 0-49.912 16.638-59.894 43.254-13.31 29.942-9.982 59.894-6.654 93.162zM332.326 301.596l-29.942 46.582 73.202 26.62c6.654-9.982 9.982-16.638 16.638-23.292l-59.894-49.91zM638.438 481.272c0-16.638-3.328-29.942-6.654-46.584-13.308-53.236-46.582-86.514-99.82-96.494-53.236-13.308-103.144 9.982-129.766 59.894-3.33 6.654-6.654 13.308-9.982 16.638 16.638-6.654 29.942-13.308 43.254-19.962 29.942-9.982 59.894-6.654 83.178 16.638 16.638 16.638 29.942 33.272 36.6 56.564 3.328 13.31 9.982 26.62 13.308 39.928 6.654 13.31 16.638 26.622 29.942 33.272 19.962 9.982 43.254 6.654 59.894-13.31-13.308-6.654-16.638-26.62-19.962-46.582zM601.84 511.22c0-6.654 3.328-13.31 9.982-13.31s13.308 3.33 13.308 9.982c0 6.654-3.328 13.308-9.982 13.308s-13.308-3.328-13.308-9.982zM708.312 850.602h-176.35l59.894 53.236c6.654 6.654 9.982 19.964 0 26.62-6.654 6.654-19.962 9.982-26.62 0l-106.474-96.492c-3.33-3.33-6.654-9.982-6.654-16.638s3.33-9.982 6.654-13.308l113.128-86.514c3.328-3.328 6.654-3.328 13.308-3.328s13.308 3.328 16.638 6.654c6.654 9.982 6.654 19.962-3.328 26.62l-69.874 53.236h179.674c146.404 0 266.188-119.784 266.188-266.188v-442.534h-229.586c-13.308 0-23.292-9.982-23.292-23.292s9.982-23.292 23.292-23.292h249.548c13.308 0 23.292 9.982 23.292 23.292v465.822c0 176.35-139.748 316.096-309.442 316.096zM495.362 181.812c-9.982 6.654-19.964 6.654-26.62-3.328s-6.654-19.962 3.33-26.62l69.874-53.236h-489.114v442.534c0 146.404 119.784 266.188 266.188 266.188 13.31 0 23.292 9.982 23.292 23.292s-9.982 23.292-23.292 23.292c-169.694 0-309.442-139.748-309.442-309.442v-465.822c0-13.308 9.982-23.292 23.292-23.292h505.754l-59.894-56.564c-6.654-6.654-9.982-19.962 0-26.62 3.33-3.328 9.982-6.654 13.31-6.654s9.982 3.328 13.31 6.654l106.472 96.494c3.328 3.328 6.654 9.982 6.654 16.638s-3.328 9.982-6.654 13.308l-116.456 83.178z" />
<glyph unicode="&#xe619;" glyph-name="TRACK-breeder" horiz-adv-x="1056" d="M775.298 537.304c-3.436 3.436-6.87 10.304-10.304 17.176-34.346 41.216-106.472 54.952-154.562-3.436-10.304-13.738-17.174-27.48-27.48-41.216-3.436 3.436-6.87 6.87-6.87 10.304-27.48 34.346-61.826 54.952-106.472 54.952-41.216 0-85.862 0-127.080 0-6.868 0-10.304-3.436-10.304-10.304 0-41.216 0-82.434 0-123.648 0-24.044 3.436-48.086 6.868-72.128l-106.472-17.174c0 0-6.868 0-10.304-3.436s0-6.87 0-10.304c0 0 48.086-116.778 61.826-144.256 3.436-3.436 6.868-3.436 6.868-3.436l116.778 61.826c10.304-10.304 24.044-20.606 37.782-27.48 34.344-17.174 75.564-20.606 113.344-20.606 109.908 6.87 188.904 89.304 188.904 195.778 0 20.606 0 41.216 0 61.826 0 24.044 10.304 37.782 27.48 48.086 3.436 0 3.436 3.436 6.87 3.436 3.436 17.176-3.436 20.608-6.87 24.044zM376.874 527c0 3.436 3.436 6.87 6.87 6.87 13.738 0 89.304 0 109.908-6.87 58.39-13.738 72.128-79 58.39-116.778-13.738-30.908-37.782-44.65-68.696-48.086-37.782-3.436-65.26 13.738-82.434 48.086-24.044 34.346-27.48 75.562-24.044 116.778zM356.264 331.222c6.87-13.738 13.738-27.48 24.044-37.782l-72.128-37.782-24.044 65.26 72.128 10.304zM706.6 461.738c0-20.608 3.436-41.216 0-58.39-6.87-72.128-44.65-116.778-113.344-137.384-68.696-24.044-130.516-3.436-175.168 54.952-3.436 6.87-10.304 13.738-13.738 20.606h3.436c20.606-6.87 37.782-13.738 54.952-17.174 41.216-10.304 75.562 0 103.040 30.908 20.606 24.044 34.346 48.086 37.782 79 3.436 17.176 6.87 34.346 13.738 51.522 6.87 20.608 17.174 34.344 34.346 48.086 24.044 17.174 54.952 13.738 75.562-6.87-20.606-17.176-24.044-41.216-20.606-65.26zM665.384 509.826c-10.304 0-17.174-6.87-17.174-17.176s6.87-17.176 17.174-17.176c10.304 0 17.174 6.87 17.174 17.176 3.436 10.304-6.87 17.176-17.174 17.176zM1050.070 35.844h-1040.7v504.892c0 175.166 144.256 319.424 319.426 319.424h401.854c175.168 0 319.424-144.256 319.424-319.424v-504.892zM54.018 80.49h947.966v460.246c0 151.126-123.648 274.774-274.774 274.774h-398.424c-151.126 0-274.774-123.646-274.774-274.774v-460.246z" />
<glyph unicode="&#xe61a;" glyph-name="TRACK-semi-natural-reproduction" d="M445.452 601.058c0 0 3.33 0 3.33 0 9.982 3.328 13.31 9.982 13.31 19.962 0 6.654-6.654 13.31-16.638 13.31 0 0-3.33 0-3.33 0-9.982-3.33-13.31-9.982-13.31-19.964 3.33-9.982 9.982-13.308 16.638-13.308zM535.292 431.362c0-9.982 9.982-16.638 19.962-13.308 3.328 0 9.982 3.328 9.982 6.654 3.328 3.328 3.328 6.654 3.328 13.308s-6.654 13.31-16.638 13.31c0 0 0 0-3.328 0s-9.982-3.33-13.308-6.654c0-6.654 0-9.982 0-13.308zM285.74 314.908c-3.33 0-3.33 0-6.654 3.328-46.582 13.308 0 0 6.654-3.328zM285.74 314.908c0 0 0 0 0 0 3.33 0 0 0 0 0zM704.986 850.602h-389.296c-169.694 0-309.442-139.748-309.442-309.442v-492.444h1011.504v489.114c-3.328 173.020-139.748 312.768-312.768 312.768zM152.65 431.362v0c6.654-13.308 9.982-23.292 16.638-29.942 0 0 3.33-3.328 3.33-3.328s3.33-3.328 3.33-3.328v-3.328h-3.33l-126.436-66.548v89.84l106.472 16.638zM149.32 587.748c0 3.328 3.33 9.982 6.654 9.982 9.982 3.328 56.564 13.308 63.22 16.638 16.638 0 33.272 3.33 46.584 3.33 33.272 0 53.236-16.638 63.22-29.942 16.638-19.964 23.292-49.91 19.964-73.202-6.654-29.942-26.62-53.236-59.894-63.22-9.982-3.33-16.638-3.33-26.62-3.33-23.292 0-46.582 9.982-66.55 33.272-29.944 29.942-39.928 73.202-46.582 106.474zM971.172 294.942l-86.514 26.62c0 0 3.328 6.654 3.328 6.654 9.982 36.6 6.654 73.202 3.328 106.472-3.328 26.62-6.654 53.236-9.982 79.858-3.328 13.308-3.328 29.942-6.654 43.254 0 6.654-3.328 6.654-6.654 6.654-16.638-3.328-33.272-3.328-49.91-6.654-26.62-3.328-53.236-6.654-79.858-13.308-39.928-6.654-69.874-29.942-96.492-69.874 0-3.33-3.328-6.654-3.328-9.982l-3.328-6.654-3.328 3.33c-3.328 3.33-6.654 6.654-9.982 13.31-6.654 9.982-13.308 16.638-23.292 26.62-19.962 16.638-43.254 26.62-66.548 26.62-33.272 0-66.548-19.964-83.178-46.582 0-3.33-3.33-6.654-3.33-6.654 0-3.33-3.33-6.654-3.33-9.982-3.33-3.33-6.654-6.654-9.982-9.982 0 0 0-3.33-3.33-3.33v0c3.33 0 3.33 0 6.654-3.33 23.292-9.982 33.272-23.292 36.6-46.582 3.33-16.638 6.654-39.928 9.982-59.894 13.31-76.53 59.894-136.424 136.424-159.712s136.424 3.328 136.424 3.328c19.962 6.654 36.6 13.308 53.236 26.62 3.328 0 3.328 3.328 6.654 3.328 0 0 3.328 3.328 3.328 3.328v0 0l153.058-99.82v-19.962h-921.664v183l156.384 83.178c23.292-19.962 46.582-33.272 73.202-43.254 3.33 0 3.33 0 6.654-3.328 66.548-19.962 136.424 13.308 136.424 13.308 6.654 3.328 13.31 6.654 19.964 9.982-3.33 16.638-3.33 29.942-6.654 46.582v0c-3.33-3.328-9.982-6.654-13.31-9.982-26.62-16.638-53.236-23.292-83.178-23.292-36.6 0-73.202 13.308-103.144 39.928-3.33 3.328-16.638 16.638-19.962 16.638l-3.33 3.328h6.654c6.654 0 13.308 0 19.962-3.328 13.308-3.328 26.62-3.328 39.928-3.328h3.33c43.254 0 73.202 16.638 93.162 53.236 13.31 26.62 23.292 53.236 23.292 83.178 0 6.654 0 39.928 0 53.236 0 19.964 9.982 39.928 23.292 56.564 13.31 13.31 29.942 19.964 46.582 19.964 13.31 0 23.292-3.33 33.272-9.982h3.33l-3.33-3.33c-19.964-19.962-16.638-39.928-9.982-63.22 0-3.33 3.33-6.654 3.33-9.982 3.33-9.982 3.33-16.638 6.654-26.62 6.654 3.328 16.638 6.654 23.292 6.654s13.308 0 16.638 0c-3.328 16.638-6.654 29.942-9.982 46.582-6.654 23.292 0 39.928 19.962 56.564 0 0 3.328 3.33 3.328 3.33s-3.328 0-3.328 3.33-6.654 3.328-13.308 6.654c-3.328 3.328-6.654 3.328-6.654 6.654-3.328 3.328-3.328 3.328-6.654 6.654-16.638 13.308-39.928 19.962-59.894 19.962-36.6 0-69.874-19.962-86.514-53.236-3.33-9.982-9.982-19.964-13.31-29.942-3.33-6.654-6.654-16.638-6.654-16.638l-6.654 3.33c-3.33 3.33-3.33 3.33-6.654 6.654-36.6 29.942-73.202 39.928-113.13 33.272-26.622-3.33-53.236-9.982-76.53-16.638-16.638-3.33-33.272-6.654-49.912-9.982-3.328 0-3.328 0-6.654-3.33 0 0 0-3.328 0-6.654 3.328-13.308 6.654-29.942 9.982-43.254 6.654-26.622 9.982-53.236 16.638-76.53 3.33-9.982 3.33-19.964 6.654-26.62v-3.33l-86.514-16.638v83.178c0 146.404 119.784 266.188 266.188 266.188h389.294c146.404 0 266.188-119.784 266.188-266.188v-246.222zM971.172 251.688v-89.84l-126.438 79.858v3.328c9.982 9.982 16.638 23.292 23.292 36.6v3.328h3.328l86.514-26.62 13.308-6.654zM834.75 384.78c-16.638-36.6-39.928-56.566-76.53-59.894-3.328 0-6.654 0-6.654 0-33.272 0-56.566 13.308-73.202 39.928-13.308 19.962-13.308 49.91-6.654 76.53 6.654 16.638 19.962 39.928 49.912 53.236 13.308 6.654 99.82 19.962 109.802 23.292 3.328 0 9.982-3.33 9.982-6.654 3.328-39.928 9.982-83.178-6.654-126.438zM838.076 321.562v-6.654c0 0 0 0 0 0s0 0 0-3.328v0l-3.328-3.328c-3.328-3.328-3.328-9.982-6.654-13.308-29.942-53.236-76.53-83.178-136.424-83.178-9.982 0-23.292 0-33.272 3.328-73.202 13.308-116.456 56.566-133.092 123.11-3.328 16.638-6.654 33.272-6.654 49.91v9.982c-3.328 23.292-6.654 46.582-29.942 56.564h-3.33l3.33 3.33c13.31 16.638 29.942 23.292 49.912 23.292 9.982 0 19.962-3.33 26.62-6.654 19.962-9.982 33.272-23.292 43.254-43.254 6.654-13.308 9.982-23.292 13.308-36.6 3.328-3.328 3.328-9.982 6.654-13.308 9.982-26.62 26.62-49.91 49.912-69.874 29.942-26.62 66.548-33.272 106.472-16.638 13.308 3.328 23.292 9.982 36.6 16.638 6.654 3.328 9.982 6.654 16.638 6.654v3.328z" />
<glyph unicode="&#xe61b;" glyph-name="TRACK-removed" d="M892.352 555.382l-119.262 196.622c0 16.118 0 54.798-9.67 83.808-12.894 35.456-51.572 70.914-54.798 74.138l-61.244 51.572c-3.226 3.226-83.808 70.914-116.040 93.478-29.008 22.564-119.262 109.594-119.262 109.594l-25.788-29.008c3.226-3.224 93.478-87.032 122.486-112.818 29.008-22.564 112.818-93.478 112.818-93.478l61.244-51.57c9.67-9.67 35.456-35.456 45.126-58.022s9.67-61.244 6.446-70.914c0-3.226 0-9.67 3.226-12.894l122.486-203.068c0 0 0-3.226 3.226-3.226 0 0 25.788-29.008 22.564-58.022-6.446-38.68-22.564-238.526-22.564-248.198 0-16.118-6.446-45.126-19.338-45.126 0 0 0 0 0 0-19.338 0-25.788 38.68-25.788 38.68s0 3.226 0 3.226c0 0-6.446 19.338-9.67 35.456 0 6.446 3.226 29.006 9.67 45.126 3.226 6.446 0 12.894-3.226 19.34 0 0-12.894 22.564-19.34 51.572-6.446 32.232-6.446 64.468-6.446 64.468 0 9.67-6.446 16.118-16.118 19.338s-16.118-3.226-22.564-9.67l-9.67-22.564c-32.232 61.244-74.138 116.040-122.486 145.052l29.006 38.68c6.446 9.67 3.226 19.34-3.226 25.788-9.67 6.446-19.34 3.226-25.788-3.224l-32.232-45.128c-12.894 3.226-29.006 6.446-41.902 3.226-6.446 0-16.118-3.226-22.564-3.226 3.226 3.226 3.226 3.226 3.226 6.446l19.34 54.798c3.226 6.446 0 12.894-3.226 19.338-6.446 6.446-12.894 6.446-19.34 6.446l-93.478-25.788c-6.446 0-9.67-6.446-12.892-9.67-6.446-16.118-32.232-70.914-29.008-93.478 3.226-19.338 12.892-93.478 12.892-109.594l-6.446-70.914v-29.006c-3.226-25.788-19.338-64.47-35.456-74.138-3.226-3.226-6.446-3.226-12.894 0-41.902 16.118-41.902 25.788-45.128 99.922 0 3.226 0 9.67 0 16.118s0 9.67-3.226 16.118c-9.67 74.138-32.232 167.612-32.232 170.838v0c0 0 0 0 0 0l-32.232 93.478c0 0 0 3.226-3.224 3.226 0 0-67.69 106.37-67.69 180.508 0 87.032-58.022 228.858-80.58 267.534l-41.902-19.338c19.338-32.232 77.362-167.612 74.138-248.198 0-83.808 61.244-183.732 70.914-199.846l32.232-90.25c0 0 32.232-122.486 35.456-196.622s6.446-109.594 70.914-132.162c3.226 0 6.446-3.226 9.67-3.226 0 0 3.226 0 3.226 0 3.226 0 3.226 0 6.446 0 0 0 0 0 3.226 0s6.446 0 9.67 0c0 0 3.226 0 3.226 0s3.226 0 3.226 0c0-6.446 0-9.67 0-16.118 16.118-148.274 125.712-257.87 244.974-244.972 96.702 9.67 170.838 99.922 186.954 215.962 9.67-16.118 25.788-29.006 48.35-29.006 0 0 0 0 0 0 45.126 0 58.022 51.572 58.022 83.808 0 3.226 16.118 209.518 22.564 244.974 6.446 38.68-22.564 77.362-29.006 83.81zM418.522 545.712c0 0 0 0 0 0 0 3.226 0 3.226 0 6.446 0 0 0 3.226 0 3.226s0 3.226 0 6.446c0 0 0 3.226 0 3.226 0 3.226 0 3.226 3.226 6.446 0 0 0 3.226 0 3.226 0 3.226 0 3.226 3.226 6.446 0 0 0 3.226 3.226 3.226 0 3.226 3.226 3.226 3.226 6.446 0 0 0 3.226 3.226 3.226 0 3.226 3.226 3.226 3.226 6.446 0 0 0 3.226 3.226 3.226 0 0 0 0 0 3.226l51.57 12.894-6.446-19.34-67.69-67.69c0 0 0 3.226 0 3.226-3.226 6.446 0 6.446 0 9.67zM602.25-8.702c-99.92-9.67-190.176 83.808-203.068 212.74 0 16.118-3.226 29.006-3.226 45.126 19.338 29.006 25.788 67.69 25.788 70.914 0 0 0 3.226 0 3.226v29.006l6.446 67.69c25.788 67.69 67.69 122.486 112.818 125.712 90.25 9.67 199.846-164.39 212.74-302.994 16.118-125.712-51.572-241.75-151.496-251.422z" />
<glyph unicode="&#xe61c;" glyph-name="TRACK-egg" d="M512 934.426c-192.986 0-332.734-332.734-332.734-558.99 0-232.914 149.73-419.242 332.734-419.242s332.732 189.658 332.732 419.242c0 226.26-139.748 558.99-332.734 558.99zM512 12.758c-153.058 0-276.166 163.038-276.166 362.678 0 212.948 136.424 499.098 276.166 499.098s276.164-286.15 276.164-499.098c0-199.64-123.11-362.678-276.166-362.678z" />
<glyph unicode="&#xe61d;" glyph-name="TRACK-non-inseminated" d="M512 937.754c-192.986 0-332.734-336.060-332.734-558.99 0-232.914 149.73-422.57 332.734-422.57s332.732 189.658 332.732 422.57c0 222.93-139.748 558.99-332.734 558.99zM512 6.102c-156.384 0-279.496 166.368-279.496 369.334 0 216.278 139.748 509.078 279.496 509.078 143.076 0 279.496-289.474 279.496-509.078 0-202.966-123.11-369.334-279.496-369.334zM615.144 388.746c9.982-13.308 26.62-23.292 49.912-23.292 29.942 0 56.566 16.638 56.566 36.6s-23.292 36.6-56.566 36.6c-19.962 0-39.928-9.982-49.912-19.962-13.308 3.328-29.942-3.328-36.6-9.982s-9.982-9.982-16.638-16.638l-19.962 19.962 126.438 126.438c6.654 6.654 6.654 19.962 0 29.942-6.654 6.654-19.962 6.654-29.942 0l-126.438-123.11-126.438 126.438c-6.654 6.654-19.964 6.654-29.942 0-6.654-6.654-6.654-19.962 0-29.942l126.438-126.438-23.292-23.292c-13.31 16.638-29.942 29.942-39.928 29.942-29.942 0-33.272-43.254-59.894-43.254-29.942 0-59.894 0-59.894-6.654s36.6-9.982 56.564-9.982c43.254 0 46.584 36.6 59.894 36.6 3.33 0 13.31-9.982 23.292-23.292l-89.838-89.84c-6.654-6.654-6.654-19.962 0-29.942 3.33-3.328 9.982-6.654 13.31-6.654 6.654 0 9.982 3.328 13.31 6.654l86.512 86.514c13.31-16.638 29.942-29.942 43.254-29.942s29.942 13.308 43.254 26.62l83.178-83.178c3.328-3.328 9.982-6.654 13.308-6.654s9.982 3.328 13.308 6.654c6.654 6.654 6.654 19.962 0 29.942l-83.178 83.178c23.292 16.638 33.272 23.292 39.928 19.962zM512 342.16c-3.33 0-13.31 9.982-23.292 19.962l23.292 23.292 23.292-23.292c-9.982-13.308-16.638-19.962-23.292-19.962z" />
<glyph unicode="&#xe61e;" glyph-name="search" d="M162.946 15.84l295.036 295.036c4.156 4.158 4.156 4.158 4.156 8.312 49.864-33.246 112.198-54.018 178.682-54.018 178.682 0 324.124 145.44 324.124 324.122s-145.44 324.124-324.124 324.124c-178.682 0-324.122-145.44-324.122-324.124 0-66.484 20.778-124.662 54.018-178.682-4.156 0-4.156-4.158-8.312-4.158l-295.036-290.88c-12.466-12.466-20.778-29.090-20.778-49.866 0-16.62 8.312-33.246 20.778-49.866 29.088-24.932 70.644-24.932 95.576 0zM387.336 593.44c0 141.282 112.198 253.476 253.476 253.476s253.476-112.198 253.476-253.476c0-141.284-112.198-253.476-253.476-253.476-137.128 0-253.476 112.198-253.476 253.476z" />
<glyph unicode="&#xe61f;" glyph-name="ECOL-individualsmall" d="M715.91 535c-85.092 0-156-70.912-156-156 0-24.818 17.73-42.546 42.546-42.546s42.546 17.73 42.546 42.546c0 39 31.906 67.364 67.364 67.364 24.818 0 42.546 17.728 42.546 42.546 3.548 28.366-17.73 46.088-39 46.088zM386.184 368.364c-24.82 0-42.546-17.73-42.546-42.546s17.728-42.546 42.546-42.546c39 0 67.364-31.906 67.364-67.364 0-24.818 17.728-42.546 42.546-42.546s42.546 17.73 42.546 42.546c3.548 85.092-67.364 152.454-152.454 152.454zM428.73 683.91c-63.82 0-117-53.182-117-117s53.182-117 117-117 117 53.182 117 117-49.638 117-117 117zM428.73 513.73c-28.366 0-53.182 24.818-53.182 53.182s24.82 53.182 53.182 53.182 53.182-24.82 53.182-53.182c0-28.366-24.82-53.182-53.182-53.182zM960.548 481.82h-28.366c-7.092 81.546-42.546 159.546-92.184 219.818l17.73 17.728c17.73 17.73 17.73 42.546 0 60.274s-42.546 17.728-60.274 0l-17.73-17.73c-60.274 49.636-138.274 81.548-219.818 92.184v28.366c0 24.818-17.73 42.546-42.546 42.546s-42.546-17.728-42.546-42.546v-28.366c-81.546-7.090-159.546-42.546-219.818-92.184l-21.272 17.73c-17.73 17.728-42.546 17.728-60.274 0s-17.73-42.546 0-60.274l17.73-17.728c-49.638-60.274-81.546-138.274-92.186-219.818h-28.366c-24.82 0-42.546-17.728-42.546-42.546s17.728-42.546 42.546-42.546h28.366c7.090-81.548 42.546-159.548 92.186-219.818l-17.728-21.272c-17.728-17.73-17.728-42.546 0-60.274 7.092-7.092 21.272-14.182 31.906-14.182s21.272 3.548 31.906 14.182l17.728 17.73c60.274-49.638 138.272-81.548 219.818-92.186v-28.366c0-24.818 17.728-42.546 42.546-42.546s42.546 17.73 42.546 42.546v28.366c81.548 7.092 159.548 42.546 219.818 92.184l17.73-17.73c7.092-7.092 21.272-14.182 31.906-14.182s21.272 3.548 31.906 14.182c17.73 17.73 17.73 42.546 0 60.274l-17.73 17.73c49.638 60.274 81.548 138.274 92.186 219.818h28.366c24.818 0 42.546 17.73 42.546 42.546-3.548 24.82-24.818 46.088-46.088 46.088zM517.364 102.454c-184.36 0-333.272 148.908-333.272 333.272s148.908 333.272 333.272 333.272c184.36 0 333.272-148.908 333.272-333.272s-148.908-333.272-333.272-333.272z" />
<glyph unicode="&#xe620;" glyph-name="TRACK-broken" d="M512 953.754c-192.986 0-332.734-336.060-332.734-562.318 0-232.914 149.73-422.57 332.734-422.57s332.732 189.658 332.732 422.57c3.328 226.26-139.748 562.318-332.734 562.318zM512 900.514c143.076 0 282.822-289.476 282.822-509.080 0 0 0-3.328 0-3.328l-83.178 79.858c-9.982 9.982-26.62 9.982-39.928 0l-156.384-153.056-179.674 186.332c-6.654 6.654-13.31 9.982-19.964 9.982-9.982 0-13.31-3.33-19.964-9.982l-59.894-59.894c13.308 206.294 143.074 459.172 276.164 459.172zM512 22.102c-146.404 0-266.188 146.404-279.496 336.060 0 0 3.33 0 3.33 0l76.53 79.858 179.674-183c6.654-6.654 13.31-9.982 19.962-9.982s13.308 3.328 19.962 6.654l159.712 156.384 89.838-86.514c3.328-3.328 3.328-3.328 6.654-3.328-26.62-166.368-139.748-296.13-276.164-296.13z" />
<glyph unicode="&#xe621;" glyph-name="TRACK-clear_early" d="M512 944.408c-196.312 0-336.060-336.060-336.060-565.644 0-232.914 149.73-425.898 336.060-425.898s336.060 189.658 336.060 425.896c0 226.26-139.748 565.644-336.060 565.644zM512 9.43c-156.384 0-282.822 166.368-282.822 372.662 0 219.602 139.748 512.408 282.822 512.408s282.822-292.804 282.822-512.408c0-206.294-126.438-372.662-282.822-372.662zM685.020 591.712c-9.982 9.982-23.292 9.982-33.272 0l-46.582-46.582c-26.62 19.964-59.894 33.272-96.492 33.272-89.838 0-163.038-73.202-163.038-163.038 0-36.6 13.31-69.874 33.272-96.492l-46.582-46.582c-9.982-9.982-9.982-23.292 0-33.272 3.33-3.328 9.982-6.654 16.638-6.654s13.31 3.328 16.638 6.654l46.582 46.582c26.62-19.962 59.894-33.272 96.492-33.272 89.838 0 163.038 73.202 163.038 163.038 0 36.6-13.308 69.874-33.272 96.492l46.582 46.584c6.654 9.982 6.654 23.292 0 33.272zM392.216 415.362c0 63.22 53.236 116.456 116.456 116.456 23.292 0 46.582-6.654 63.22-19.964l-159.712-159.712c-13.31 16.638-19.964 39.928-19.964 63.22zM625.13 415.362c0-63.22-53.236-116.456-116.456-116.456-23.292 0-46.582 6.654-63.22 19.962l159.712 159.712c13.308-16.638 19.962-39.928 19.962-63.22z" />
<glyph unicode="&#xe622;" glyph-name="TRACK-mid" d="M512 944.408c-196.312 0-336.060-336.060-336.060-565.644 0-232.914 149.73-425.898 336.060-425.898s336.060 189.658 336.060 425.896c0 226.26-139.748 565.644-336.060 565.644zM512 9.43c-156.384 0-282.822 166.368-282.822 372.662 0 219.602 139.748 512.408 282.822 512.408s282.822-292.804 282.822-512.408c0-206.294-126.438-372.662-282.822-372.662zM521.982 199.086c-29.942 0-69.874 9.982-109.802 63.22-23.292 29.942-13.31 56.566-6.654 66.548 9.982 23.292 36.6 36.6 63.22 36.6 19.964 0 36.6-9.982 46.582-23.292 0 0 3.328-3.328 6.654-3.328 13.308 0 23.292 9.982 23.292 13.308 0 6.654-13.308 33.272-26.62 59.894-16.638-6.654-46.582-13.308-73.202-13.308-49.912 0-83.178 19.962-93.162 59.894-23.292 79.858 33.272 129.766 86.514 149.73 6.654 3.328 26.62 6.654 46.582 6.654 33.272 0 96.492-6.654 143.076-56.566 39.928-43.254 59.894-106.472 53.236-189.658 0-76.53-73.202-169.692-159.712-169.692zM472.072 328.856c-9.982 0-23.292-6.654-29.942-16.638-3.33-6.654-3.33-16.638 6.654-26.62 23.292-29.942 46.582-46.582 76.53-46.582 56.564 0 119.784 66.548 123.11 136.424 3.328 73.202-9.982 126.438-43.254 159.712-33.272 36.6-79.858 43.254-113.13 43.254-16.638 0-29.942-3.328-33.272-3.328-23.292-9.982-79.858-33.272-63.22-99.82 3.33-13.31 13.31-29.942 53.236-29.942 36.6 0 73.202 13.31 76.53 16.638l16.638 6.654 9.982-13.31c19.962-33.272 46.582-79.858 39.928-103.144-6.654-26.62-36.6-46.582-63.22-46.582v0c-16.638 0-29.942 6.654-39.928 19.962-9.982 0-13.31 3.328-16.638 3.328zM472.072 528.492c-13.31 0-23.292-9.982-23.292-23.292s9.982-23.292 23.292-23.292c13.31 0 23.292 9.982 23.292 23.292 3.33 13.308-9.982 23.292-23.292 23.292z" />
<glyph unicode="&#xe623;" glyph-name="TRACK-late" d="M512 957.078c-196.312 0-339.386-339.386-339.386-568.97 0-236.24 153.056-425.896 339.386-425.896s339.386 192.986 339.386 425.896c0 232.914-143.076 568.97-339.386 568.97zM512 18.774c-156.384 0-286.15 166.368-286.15 372.662 0 219.602 139.748 515.736 286.15 515.736 143.076 0 286.15-292.804 286.15-515.736 0-206.294-129.766-372.662-286.15-372.662zM472.072 148.542c-76.53 0-116.456 43.254-119.784 83.178-3.33 36.6-19.964 79.858-33.272 113.13-3.33 9.982-6.654 19.962-9.982 26.62-23.292 69.874-43.254 139.748 0 159.712 9.982 3.328 39.928 13.308 56.564 6.654s36.6-26.62 36.6-49.912c0-3.33 3.33-19.964 9.982-36.6 6.654-13.31 16.638-29.944 23.292-36.602 6.654 0 19.964-3.328 29.942-3.328 3.33 23.292 13.31 59.894 36.6 59.894 13.308 0 19.962 0 26.62 3.33 0 19.964 0 33.272-3.328 39.928-13.308-3.33-36.6-9.982-53.236-13.31l-29.942-9.982v29.942c0 9.982-3.33 23.292-6.654 23.292-9.982 0-29.942 3.328-36.6 43.254-9.982 43.254 3.33 99.82 49.912 123.11 19.964 9.982 53.236 23.292 89.838 23.292 43.254 0 76.53-16.638 99.82-53.234 53.236-76.53 86.514-189.66 86.514-252.876 0-166.368-76.53-232.914-143.074-256.204-39.928-16.638-76.53-23.292-109.802-23.292zM329 487.928c0-6.654-3.33-29.942 23.292-103.144 3.33-6.654 6.654-16.638 9.982-26.62 13.31-33.272 33.272-79.858 36.6-126.438 0-19.962 26.62-39.928 76.53-39.928 26.62 0 56.566 6.654 89.838 19.962 76.53 29.942 113.13 99.82 113.13 212.948 0 56.564-29.942 159.712-76.53 226.26-16.638 23.292-36.6 33.272-63.22 33.272s-53.236-9.982-69.874-19.964c-16.638-6.654-19.964-26.62-23.292-36.6-3.33-19.962 0-36.6 0-43.254 19.964-3.33 33.272-19.964 39.928-39.928 19.964 3.328 39.928 9.982 53.236 9.982h6.654c23.292-3.328 29.942-33.272 29.942-96.492 0-29.944-33.272-36.602-56.566-36.602-3.328-9.982-6.654-29.942-6.654-36.6 0-9.982-6.654-19.962-23.292-23.292-13.31-3.328-39.928 0-56.564 0h-6.654c0 0 0 0 0 0-13.31 0-19.964 3.328-49.912 59.894l-3.33 3.328c-3.33 9.982-13.31 36.6-13.31 53.236 0 3.33-3.33 6.654-9.982 9.982-6.654 6.654-13.31 3.33-19.964 0zM521.982 650.964c-9.982 0-16.638-6.654-16.638-16.638s6.654-16.638 19.964-16.638c9.982 0 16.638 6.654 16.638 16.638-3.328 9.982-9.982 16.638-19.962 16.638z" />
<glyph unicode="&#xe624;" glyph-name="TRACK-dead" horiz-adv-x="1184" d="M452.702 336.596l-14.18 56.726c-3.548 10.636-10.636 14.182-21.272 14.182h-28.366v-74.456h-39v187.91c21.272 3.548 39 3.548 70.912 3.548 49.638 0 67.364-14.18 67.364-56.726 0-24.818-10.636-42.546-35.452-46.088v0c10.636-3.548 21.272-10.636 24.82-28.366l17.728-56.726h-42.546zM420.794 439.416c21.272 0 28.366 7.092 28.366 24.82 0 21.272-7.092 24.82-28.366 24.82h-28.366v-53.182h28.366zM566.158 336.596v184.36h42.546v-187.91h-42.546zM824.976 464.232c0-49.638-17.73-60.274-63.82-60.274-10.636 0-24.818 0-35.452 3.548v-70.912h-42.546v184.36c21.272 3.548 39 3.548 70.912 3.548 53.182 0 70.912-14.18 70.912-60.274zM757.61 435.868c21.272 0 28.366 7.092 28.366 28.366 0 24.82-7.092 28.366-28.366 28.366h-28.366v-60.274h28.366zM133.612-17.948l141.816-7.092c0 0 3.548 0 3.548 0 10.636 3.548 67.364 14.182 113.452 28.366 17.728 7.092 46.088 10.636 88.632 10.636 56.724 0 120.546-7.092 141.816-10.636 10.636-3.548 24.818-3.548 49.636-3.548 21.272 0 46.088 0 70.912 0 14.182 0 24.818 0 31.906 0 39 0 60.274-7.092 81.548-10.636 17.73-3.548 35.452-10.636 60.274-10.636 7.092 0 17.73 0 24.818 0 24.818 3.548 49.638 7.092 78 7.092 49.638 0 95.728-7.092 120.544-10.636 0 0 3.548 0 3.548 0 14.182 0 24.818 10.636 24.818 21.272 0 7.092 0 14.182-3.548 17.73-3.548 7.092-10.636 10.636-17.73 10.636-24.818 3.548-74.454 10.636-127.636 10.636-17.73 0-35.452 0-49.636-3.548h-7.092v471.544c0 3.548 0 3.548 0 3.548 0 212.728-173.726 382.908-382.908 382.908-205.636 0-372.274-159.548-382.908-365.182v-503.454l-56.724 3.548c-7.092 0-31.906 3.548-60.274 3.548-17.728 0-35.454 0-46.088-3.548-7.092 0-14.18-3.548-17.728-10.636-10.636 3.548-10.636-3.548-10.636-10.636 3.548-14.182 14.182-24.818 28.366-21.272 10.636 0 21.272 3.548 39.002 3.548 21.272 0 46.088-3.548 60.274-3.548zM243.518 513.87c0 184.36 148.91 333.272 333.272 333.272s333.272-148.91 333.272-333.272v-482.178h-7.092c-14.182 0-24.818 3.548-35.452 7.092-21.272 7.092-49.638 14.182-95.73 14.182-7.092 0-17.73 0-31.906 0-17.73 0-46.090 0-70.912 0-17.73 0-31.906 0-35.452 0-14.182 3.548-81.548 10.636-148.908 10.636-46.088 0-85.094-3.548-106.364-14.182-35.452-14.182-85.094-24.818-99.27-24.818v0h-28.366v489.274zM612.248 652.142l39 39c3.548 3.548 3.548 7.090 3.548 14.18 0 3.548-3.548 10.636-3.548 14.182-7.092 7.092-17.73 7.092-24.818 0l-39-39-39 39c-7.092 7.092-17.73 7.092-24.818 0s-7.092-17.728 0-24.818l39-39-39-39c-7.092-7.092-7.092-17.728 0-24.82 3.548-3.548 7.092-3.548 14.182-3.548 3.548 0 10.636 3.548 14.182 3.548l39 39 39-39c3.548-3.548 7.092-3.548 14.182-3.548 3.548 0 10.636 3.548 14.182 3.548 3.548 3.548 3.548 7.092 3.548 14.182 0 3.548-3.548 10.636-3.548 14.182l-46.088 31.906z" />
<glyph unicode="&#xe625;" glyph-name="TRACK-juvenile" d="M827.886 805.792c-3.226 6.446-6.446 12.892-9.67 19.338-29.006 54.798-112.818 87.032-180.508 29.008-12.894-12.894-25.788-29.008-38.68-41.902-3.226 3.226-3.226 9.67-6.446 12.894-25.788 45.126-61.244 77.362-109.594 87.032s-99.92 16.118-148.274 25.79c-9.67 0-12.892 0-12.892-9.67-6.446-48.35-16.118-96.702-22.564-145.052 0-9.67-3.226-16.118-3.226-25.788l-87.032 29.006c-3.224 0-9.67 3.226-12.894 0-6.446 0-6.446-6.446-6.446-9.67 0 0-19.338-167.612-19.338-209.518 0-6.446 6.446-9.67 6.446-9.67h167.612c12.894-19.338 29.008-35.456 48.35-48.35s38.68-22.564 58.022-29.008v-161.168c0-3.226 12.892-6.446 29.008-6.446s29.008 3.226 29.008 6.446v145.052c3.226 0 6.446 0 12.892-3.226 16.118-3.226 32.232-3.226 48.35 0v-141.828c0-3.226 12.894-6.446 29.006-6.446s29.006 3.226 29.006 6.446v161.168c77.362 25.788 135.38 90.25 151.496 177.282 3.226 22.564 9.67 48.35 12.894 70.914 3.226 25.788 19.34 41.902 45.126 51.572 3.226 0 6.446 3.224 9.67 3.224-9.67 9.67-16.118 16.118-19.338 22.564zM228.346 622.058l9.67 93.478 51.57-16.118c0-12.894 3.226-25.788 6.446-38.68s6.446-25.788 12.894-38.68h-80.58zM360.504 870.26c0 3.226 6.446 6.446 9.67 6.446 16.118 0 103.146-16.118 128.932-29.008 67.69-29.006 70.914-106.37 45.126-148.274-19.338-32.232-54.798-45.126-90.25-41.902-45.128 3.226-70.914 32.232-87.032 70.914-22.564 48.35-16.118 96.702-6.446 141.828zM731.188 731.654c-3.226-22.564-6.446-45.126-9.67-67.69-22.564-80.58-77.362-125.712-157.942-138.604-83.808-12.894-154.722 22.564-193.402 96.702-3.226 9.67-9.67 19.34-12.892 29.006 22.564-12.892 41.902-25.788 64.468-32.232 45.128-19.338 90.252-16.118 128.932 16.118 25.788 22.564 48.35 48.352 61.244 83.81 9.67 19.338 16.118 38.68 25.788 58.022 9.67 22.564 29.006 38.68 51.572 48.35 29.006 12.894 67.69 3.226 87.032-22.564-35.456-16.118-41.902-41.902-45.126-70.914zM676.39 780.004c-3.226-9.67 6.446-19.34 16.118-22.564 9.67 0 19.338 6.446 22.564 16.118s-6.446 19.34-16.118 22.564c-12.894 0-19.338-6.446-22.564-16.118zM853.674 325.514l-64.47 51.572c-9.67 9.67-29.006 6.446-38.68-3.226l-70.914-83.808-99.922 83.808c-9.67 9.67-32.232 6.446-38.68-3.226l-32.232-41.902-45.128 35.456c-9.67 9.67-29.008 6.446-38.68-3.226l-70.914-83.808-99.92 83.808c-9.67 9.67-32.232 6.446-38.68-3.226l-48.35-61.244c-3.224-3.226-6.446-9.67-6.446-16.118v-6.446h-3.224c58.022-193.402 209.518-325.558 370.684-325.558v0c19.34 0 38.68 3.226 54.798 6.446 135.38 25.788 238.526 154.722 264.314 322.334v3.226h3.226c3.226 3.226 6.446 3.226 6.446 6.446 3.226 6.446 6.446 12.894 6.446 19.338 0 3.226-3.226 9.67-6.446 12.894l-3.226 6.446c3.226-3.226 3.226-3.226 0 0v0 0c3.226 0 0 0 0 0zM802.1 293.278c-19.34-151.496-109.594-267.536-225.634-290.1-16.118-3.226-32.232-3.226-45.126-3.226-128.932 0-254.646 106.37-312.664 264.314v3.226l25.788 32.232 99.92-83.808c9.67-9.67 29.008-6.446 38.68 3.226l70.914 83.808 45.128-35.456c9.67-9.67 29.008-6.446 38.68 3.226l35.456 41.902 99.922-83.808c6.446-6.446 12.894-6.446 19.34-6.446s12.894 3.226 19.338 9.67l70.914 83.808 25.788-19.338-6.446-3.226z" />
<glyph unicode="&#xe626;" glyph-name="TRACK-adulte" d="M803.23 556.428c2.932 14.654 17.582 26.372 35.166 23.446s26.372-17.582 23.446-35.166c-2.932-14.654-20.514-26.372-35.166-23.446-14.654 5.862-26.372 20.514-23.446 35.166zM1017.156 550.568c-2.932 5.86-8.792 11.722-11.722 17.582s-5.86 11.722-5.86 17.582c-2.932 5.86-2.932 8.79-5.86 14.654-20.514 41.028-58.61 73.26-105.498 84.986s-96.706 0-137.732-32.236c-14.654-11.722-26.372-23.446-41.028-38.096-5.86-5.86-11.722-11.722-20.514-20.514l-11.722-11.722-8.792 23.446c-2.932 5.86-2.932 8.79-5.86 14.654-32.236 70.332-82.052 111.358-146.526 128.942-43.958 11.722-87.916 20.514-131.874 32.236-26.372 5.86-55.68 11.722-82.052 20.514-2.93 0-2.93 0-2.93 0s0-2.932 0-2.932c-5.86-26.372-11.722-49.818-17.584-76.194-8.79-43.958-20.514-87.916-29.304-131.874-11.722-55.68-20.514-117.218-8.79-178.76 0-8.792 2.932-14.654 5.86-23.446l5.86-20.514-234.442-61.54c0 0-14.654 0-8.792-11.722 0 0 105.498-216.856 114.29-228.58 2.93-2.932 5.862-2.932 5.862-2.932h5.86l219.786 143.594 5.86-5.86c38.096-29.304 82.052-52.75 137.734-67.404v0c14.652-2.932 26.372-5.86 41.028-8.792 178.76-32.236 339.938 73.26 380.966 249.092 8.792 35.166 14.654 67.404 23.446 102.568 2.932 32.236 29.304 58.61 70.332 73.26v0zM331.42 711.744c2.93 8.79 17.584 17.582 26.372 14.652 17.582-2.93 164.108-41.028 187.55-52.75 52.75-26.372 73.26-70.332 79.126-99.636 11.722-46.886 2.932-99.638-23.446-134.802-32.236-46.886-82.052-67.404-146.526-58.61-5.86 0-14.654 2.932-20.514 2.932-52.75 14.654-93.776 52.75-111.358 114.29-23.446 79.124-8.79 155.316 8.79 213.926zM149.73 131.506l-64.472 131.874 187.55 46.886 2.93-8.792c8.79-20.514 20.514-38.096 32.236-52.75l8.79-8.792-167.040-108.428zM938.034 559.358c-41.028-14.654-49.818-46.886-55.68-87.916l-2.932-17.582c-5.86-29.304-11.722-55.68-20.514-84.986-38.096-117.22-123.082-184.62-252.024-196.342-38.096-2.932-73.26-2.932-105.498 5.86-79.126 20.514-140.664 76.194-178.76 158.246-2.93 8.792-8.79 17.582-11.722 26.372l-20.514 46.886 29.304-17.582c11.722-5.86 20.514-11.722 29.304-17.582 20.514-11.722 38.094-26.372 58.61-35.166 64.472-32.236 123.082-26.372 175.83 11.722 41.028 29.304 73.26 67.404 93.774 111.358l11.722 23.446c8.792 20.514 20.514 41.028 29.304 61.54 17.582 32.236 46.886 58.61 82.052 73.26 49.818 20.514 111.358 0 140.664-43.958l8.792-11.722-11.722-5.86z" />
<glyph unicode="&#xe627;" glyph-name="bustard" d="M699.318 18.328c0 0 0 0 0 0s0 0 0 0 0 0 0 0zM37.024 472.554c-2.93 2.93-11.722 8.79-11.722 17.582 2.932 5.86 20.514 5.86 23.446 8.79 20.514 2.93 23.446 8.79 23.446 29.304 0 11.722 0 20.514 0 32.236s2.93 23.446 14.654 29.304c11.722 5.86 20.514 11.722 32.236 11.722 0 0 49.818 14.654 52.75 14.654 29.304 5.86 58.61 11.722 87.916 17.582 32.236 5.86 55.68 20.514 70.332 49.82 20.514 46.886 38.096 93.774 64.472 137.732 2.93 5.86 2.93 8.79-2.93 14.654s-17.584 14.654 2.93 17.582c2.93 0 0 5.86 0 8.792-2.93 5.86-5.86 8.79-5.86 14.654 11.722 0 20.514-11.722 32.236-14.654 2.93 0 8.79-2.932 11.722 0s0 8.79-2.93 11.722c-5.86 11.722-17.584 17.582-23.446 32.236 14.654-2.932 20.514-11.722 29.304-17.582 2.93-2.932 8.79-5.862 11.722-2.932 5.86 2.932 0 8.79 0 11.722-5.86 14.654-17.584 26.372-23.446 41.028 14.654-11.722 26.372-26.372 46.886-35.166-2.93 11.722-8.79 17.584-11.722 23.446 0 8.792-5.86 14.654-2.93 26.372 14.654-8.792 26.372-20.514 38.094-32.236 2.93-2.93 8.79-8.79 11.722-5.86 5.86 2.932 0 8.792-2.93 11.722 0 2.93-2.93 5.86-5.86 8.79s-2.93 8.792 0 11.722c5.86 2.932 5.86-2.93 8.79-5.86 14.654-14.654 29.304-26.372 46.886-35.166 26.372-17.582 29.304-20.514 17.582-49.82s-8.792-52.75 11.722-73.26c5.86-5.86 23.446-11.722 29.304-17.582 8.792-5.86 20.514-5.86 29.304-5.86 17.582 0 35.166-2.932 52.75-5.86 67.404-11.722 131.874-8.792 190.482 32.236 11.722 8.79 23.446 11.722 35.166 5.86 23.446-11.722 49.818-17.582 76.194-11.722 8.792 2.932 23.446-2.93 23.446-14.652 0-5.86-29.304-11.722-35.166-14.654-26.372-5.86-70.332-55.68-73.26-58.61-5.86-5.86-14.654-11.722-17.582-11.722s2.932 11.722 5.86 17.582-23.446-20.514-26.372-20.514c0 0 0 2.932 0 8.79 2.932 5.862-17.582-8.79-20.514-11.722-11.722-8.79-11.722-2.93-5.86 5.862 5.86 5.86-5.86 2.93-17.582-2.932s-23.446-5.86-35.166-8.79c-52.75-14.654-96.706-38.096-134.802-79.126-23.446-23.446-23.446-38.096-2.932-64.472 38.096-46.886 52.75-96.708 38.096-158.246-17.582-64.472-20.514-131.874-14.654-199.274 2.932-35.166 5.86-70.332 20.514-105.498 5.86-14.654 8.792-29.304 11.722-41.028 0-2.932 0-8.792-2.932-8.792-2.932-2.932-5.86 0-8.792 2.932-11.722 11.722-26.372 26.372-32.236 43.958-2.932 8.792-5.86 20.514-11.722 26.372-2.932 0-2.932-5.86-2.932-8.792v-29.304c0 0 0 0 0 0 2.932-26.372 5.86-49.818 5.86-73.26 0-5.86 0-14.654 0-20.514 0-2.932 0-8.792-5.86-11.722s-8.792 2.932-11.722 8.792c-8.792 14.654-14.654 32.236-17.582 49.818-5.86 20.514-11.722 38.096-14.654 58.61 0 2.932 0 8.792-5.86 5.86-5.86 0-2.932-5.86-2.932-8.792 0-8.792 0-17.582 0-26.372 0-20.514 0-43.958 0-64.472 0-5.86 2.932-17.582-5.86-17.582-8.792-2.932-11.722 8.792-14.654 14.654-2.932 23.446-5.86 43.958-5.86 64.472-2.932 14.654-2.932 29.304-11.722 43.958-8.792-5.86-5.86-11.722-8.792-20.514-2.932-23.446-5.86-46.886-8.792-70.332 0-5.86 0-14.654-8.792-14.654s-11.722 5.86-14.654 11.722c-5.86 14.654-5.86 29.304-8.79 43.958 0 11.722 0 26.372 0 41.028-2.93 0-2.93 0-5.86 0-5.86-8.792-5.86-20.514-5.86-29.304 0-14.654-2.93-29.304-5.86-46.886 0-5.86-2.93-8.792-8.79-8.792s-8.79 2.932-8.79 8.792-2.93 14.654-2.93 23.446c-2.93 29.304 0 58.61 5.86 90.842-11.722-8.792-11.722-20.514-17.582-29.304-2.93-2.932-2.93-5.86-8.79-5.86-2.93 0-5.86 5.86-5.86 8.792-2.93 11.722 0 20.514 0 29.304 2.93 11.722 8.79 23.446 5.86 38.096-2.93-5.86-5.86-8.792-8.79-14.654-5.86-8.792-8.79-23.446-20.514-17.582-11.722 2.932-5.86 17.582-5.86 29.304 0 8.792 2.93 14.654 5.86 23.446s8.79 17.582 8.79 32.236c-5.86-5.86-8.79-8.792-11.722-11.722s-8.79-8.792-14.654-5.86c-8.79 2.932-2.93 11.722-2.93 17.582s0 11.722 2.93 17.582c5.86 26.372 5.86 52.75 5.86 82.052v0 41.028c0 0 0 2.932 0 2.932-8.79 26.372-20.514 52.75-41.028 73.26-8.79 8.792-26.372 29.304-29.304 35.166-5.86 8.79-11.722 11.722-20.514 8.79-2.93 0-23.446 2.93-26.372 2.93s-23.446 5.86-23.446 5.86c-8.79 2.93-14.654 0-20.514-8.79s-14.652-14.652-20.514-23.446c-2.932-2.932-20.514-26.372-23.446-26.372-8.79-11.722-23.446-14.654-38.094-14.654-17.582-2.932-58.61 43.958-58.61 43.958-5.862 2.932-8.79 5.86-14.654 14.654-8.79-2.932-17.582-5.86-41.028-8.792-8.792 0-20.514 8.79-17.582 17.582 0 8.79 26.372 2.93 46.886 11.722-2.93 8.79-5.862 11.722-5.862 11.722-8.79-5.86-35.166-11.722-41.028-8.79z" />
<glyph unicode="&#xe628;" glyph-name="falcon" horiz-adv-x="1040" d="M306.852 735.74c0 0-79.93 69.272-101.24 90.586-21.314 18.65-71.936 74.598-71.936 74.598-5.33-15.986 13.32-47.958 45.294-87.922-10.658-5.328-106.57 119.894-117.228 125.22-5.33 2.664 42.626-114.562 53.286-119.894-26.642 10.658-53.286 31.972-79.93 55.95-2.664 0-5.33 0-2.664-2.664 15.986-34.634 39.964-66.604 66.604-95.914l-77.266 45.294c-2.664 2.664-7.992-2.664-5.33-5.33 10.658-29.308 37.302-61.278 77.266-93.25l-77.266 39.964c-2.664 2.664-5.33-2.664-5.33-5.33 15.986-23.976 45.292-50.62 87.92-82.59l-85.256 29.308c-2.664 0-2.664-2.664-2.664-2.664 21.316-21.316 50.622-39.964 87.922-53.286l-37.302-2.664c21.314-21.314 42.626-34.634 63.942-42.626-2.664-26.642 7.992-42.626 31.972-53.286 47.958-61.278 93.25-119.892 151.864-159.854 31.972-50.62 71.936-85.256 114.562-109.238-18.65-39.964-69.272-87.922-130.548-133.214 13.322-7.992 29.308-7.992 50.62 0l-23.976-45.294c13.322-2.664 34.634 0 47.958-5.328 34.634-10.658 63.942-23.976 95.914-2.664s61.278 31.972 90.586 29.308c13.322-2.664 23.976 10.658 34.634 15.986 7.992 29.308 15.986 61.278 26.642 98.576 95.914 26.642 189.164 55.95 279.748 93.25 2.664 0 2.664 2.664 0 5.328l-15.986 7.992c26.642 0 50.62 10.658 74.598 26.642 2.664 2.664-2.664 5.328-5.328 5.328l-15.986 7.992c26.642 10.658 50.62 26.642 71.936 53.286 0 0 0 2.664 0 2.664l-29.308 5.328c18.65 15.986 37.302 34.634 58.612 50.62 2.664 2.664 0 2.664-2.664 2.664l-42.626-21.314 26.642 47.958c0 2.664 0 2.664-2.664 2.664-37.302-31.972-77.264-69.272-119.894-66.604-34.634 2.664-82.59-5.33-135.876 2.664 18.65 42.628 39.964 77.264 87.922 74.598-5.328 26.642-21.316 39.964-53.286 39.964-23.976 7.992-66.604-10.656-114.562-39.964-55.95-34.634-138.54-10.656-277.084 114.562-13.322 21.314-29.308 42.628-42.628 63.942-10.656 13.322-26.642 21.314-50.62 18.65z" />
<glyph unicode="&#xe629;" glyph-name="TRACK-unknown" d="M257.048 793.796c93.774 17.582 169.968 32.236 284.258 26.372 152.384 0 216.856-99.638 216.856-199.274v-73.26c0-137.732-76.194-199.274-228.58-187.55v-87.916h-114.29v196.342h114.29c49.818 2.93 87.916 23.446 87.916 82.052v55.68c0 58.61-35.166 84.986-111.358 84.986h-252.022v102.568zM406.502 187.186c0 14.654 8.79 26.372 23.446 26.372h87.916c17.582 0 23.446-8.792 23.446-26.372v-90.842c0-17.582-8.792-23.446-23.446-23.446h-87.916c-14.654 0-23.446 8.792-23.446 23.446v90.842z" />
<glyph unicode="&#xe62a;" glyph-name="checked" horiz-adv-x="1088" d="M403.24-28.588l-361.516 361.516c-29.088 29.088-29.088 74.798 0 103.88s74.8 29.088 103.88 0l245.166-245.168 548.514 685.64c24.932 33.246 70.644 37.394 103.88 12.466s37.394-70.644 12.466-103.88l-652.398-814.456z" />
<glyph unicode="&#xe62b;" glyph-name="drag_thin" d="M867.002 286.966l150.058 150.058c3.66 3.66 3.66 7.32 3.66 10.978s0 7.32-3.66 10.978l-150.058 150.058c-7.32 7.32-10.98 7.32-18.302 0-3.66-3.662-3.66-7.32-3.66-10.98v-98.816h-274.488v274.488h98.818c3.66 0 7.32 0 10.98 3.662s3.66 7.32 3.66 10.978 0 3.66-3.66 10.978l-150.058 150.058c-7.32 7.32-14.638 3.662-21.958 0l-150.058-150.058c-3.662-3.66-3.662-7.32-3.662-10.978s0-3.66 3.662-10.978c3.662-3.662 7.32-3.662 10.978-3.662h98.818v-274.488h-274.488v98.816c0 3.662 0 3.662-3.662 10.98-7.32 7.32-10.978 7.32-18.3 0l-150.056-150.058c-3.662-3.662-3.662-7.32-3.662-10.978s0-7.32 3.662-10.978l150.056-150.058c7.32-7.32 10.978-10.98 18.3 0 3.662 3.66 3.662 7.32 3.662 10.98v98.818h274.488v-274.486h-102.472c-3.662 0-3.662 0-10.978-3.66-3.662-3.66-3.662-7.32-3.662-10.98s0-3.66 3.662-10.98l150.058-150.058c3.662-3.66 14.638-7.32 18.302 0l150.058 150.058c3.66 3.66 3.66 7.32 3.66 10.98s0 3.66-3.66 10.98c-3.66 3.66-7.32 3.66-10.98 3.66h-98.818v274.488h278.144v-98.818c0-3.66 0-7.32 3.66-10.98 10.98-7.32 14.638-7.32 21.958 0z" />
<glyph unicode="&#xe62c;" glyph-name="file" horiz-adv-x="864" d="M815.84 640.43c-4.158 8.312-8.312 12.466-16.62 20.778l-211.926 211.926c-4.158 4.158-12.466 8.312-20.778 16.62v-249.326h249.326zM47.094-16.122c8.312-8.312 20.778-16.62 37.396-16.62h702.26c12.466 0 24.932 4.158 37.394 16.62 8.312 8.312 12.466 20.778 12.466 37.394v552.668h-282.57c-12.466 0-24.932 4.156-37.394 16.62-8.312 8.312-16.62 20.778-16.62 37.394v282.57h-415.542c-12.466 0-24.93-4.158-37.396-12.466-8.312-8.312-16.618-20.778-16.618-37.396v-835.234c0-20.778 4.158-29.090 16.618-41.554z" />
<glyph unicode="&#xe62d;" glyph-name="folder" horiz-adv-x="1168" d="M90.602 13.060c27.422-27.422 63.99-45.706 105.126-45.706h799.862c41.132 0 73.128 13.712 105.126 45.706 27.422 27.422 45.706 63.99 45.706 105.126v461.636c0 41.132-13.712 73.13-45.706 105.128-27.422 27.422-63.99 45.706-105.126 45.706h-443.352v22.854c0 41.13-13.712 73.128-45.706 105.126-27.422 27.422-63.99 45.706-105.128 45.706h-210.25c-41.132 0-77.704-13.712-105.126-45.706-27.422-27.422-45.706-63.99-45.706-105.126v-630.75c4.572-45.706 18.278-82.274 50.278-109.698z" />
<glyph unicode="&#xe62e;" glyph-name="cloud" horiz-adv-x="1440" d="M1236.992 543.144c-4.72 207.596-169.852 372.732-377.452 372.732-160.414 0-301.956-103.798-353.856-245.336-33.028 42.458-80.21 70.776-141.544 70.776-94.364 0-174.568-80.21-174.568-174.568 0-9.438 0-14.154 4.718-23.592-103.8-42.458-174.568-146.256-174.568-268.932 0-160.414 132.1-292.524 292.524-292.524h816.23c160.414 0 292.524 132.1 292.524 292.524-9.438 122.676-80.21 226.468-184.004 268.932z" />
<glyph unicode="&#xe62f;" glyph-name="sensors" d="M865.208 526.952h-270.102c-12.466 0-24.932 12.466-24.932 24.932s12.466 24.93 24.932 24.93h270.104c12.466 0 24.932-12.466 24.932-24.93s-12.466-24.932-24.932-24.932zM865.208 414.754h-270.102c-12.466 0-24.932 12.466-24.932 24.932s12.466 24.93 24.932 24.93h270.104c12.466 0 24.932-12.466 24.932-24.93s-12.466-24.932-24.932-24.932zM865.208 310.872h-270.102c-12.466 0-24.932 12.466-24.932 24.932s12.466 24.932 24.932 24.932h270.104c12.466 0 24.932-12.466 24.932-24.932s-12.466-24.932-24.932-24.932zM944.16 82.326h-864.322c-49.866 0-66.484 37.394-66.484 66.486v585.908c0 49.866 37.396 66.486 66.484 66.486h864.322c49.866 0 66.486-37.394 66.486-66.486v-590.068c0-45.712-37.394-62.332-66.486-62.332zM79.84 751.342c-12.466 0-12.466-8.312-12.466-12.466v-590.068c0-12.466 8.312-12.466 12.466-12.466h864.322c12.466 0 12.466 8.312 12.466 12.466v585.908c0 12.466-8.312 12.466-12.466 12.466h-864.322zM358.252 522.798c-8.312 8.312-20.778 12.466-29.088 4.156s-12.466-20.778-4.156-29.088c8.312-16.62 16.618-33.246 16.618-49.866 0-20.778-8.312-41.554-20.778-58.176-4.156-4.158-4.156-8.312-4.156-16.62 0-4.158 4.156-12.466 8.312-16.62s8.312-4.158 12.466-4.158 12.466 4.158 16.618 8.312c20.778 24.932 29.088 54.018 29.088 83.11 0 33.246-8.312 58.176-24.93 78.952zM403.954 597.594c-8.312 8.312-20.778 8.312-29.088 0-4.156-4.158-8.312-8.312-8.312-16.62 0-4.158 0-12.466 4.156-16.62 29.088-33.246 45.712-74.798 45.712-120.508s-16.618-87.264-49.866-120.508c-4.156-4.158-8.312-8.312-8.312-16.62 0-4.158 4.156-12.466 8.312-16.62s8.312-8.312 16.618-8.312c4.156 0 12.466 4.158 16.62 8.312 41.554 41.554 62.332 95.576 62.332 153.748 4.156 62.332-20.778 112.198-58.176 153.748zM279.296 448c0-29.834-24.186-54.018-54.018-54.018s-54.018 24.186-54.018 54.018c0 29.834 24.186 54.018 54.018 54.018s54.018-24.186 54.018-54.018z" />
<glyph unicode="&#xe630;" glyph-name="individuals" d="M866.066 526.952h-270.104c-12.466 0-24.932 12.466-24.932 24.932s12.466 24.93 24.932 24.93h270.104c12.466 0 24.932-12.466 24.932-24.93s-12.466-24.932-24.932-24.932zM866.066 414.754h-270.104c-12.466 0-24.932 12.466-24.932 24.932s12.466 24.93 24.932 24.93h270.104c12.466 0 24.932-12.466 24.932-24.93s-12.466-24.932-24.932-24.932zM866.066 310.872h-270.104c-12.466 0-24.932 12.466-24.932 24.932s12.466 24.932 24.932 24.932h270.104c12.466 0 24.932-12.466 24.932-24.932s-12.466-24.932-24.932-24.932zM945.020 82.326h-864.322c-49.866 0-66.484 37.394-66.484 66.486v590.068c0 49.866 37.396 66.486 66.484 66.486h864.322c49.866 0 66.486-37.394 66.486-66.486v-590.068c0-49.866-37.394-66.486-66.486-66.486zM80.692 751.342c-12.466 0-12.466-8.312-12.466-12.466v-590.068c0-12.466 8.312-12.466 12.466-12.466h864.322c12.466 0 12.466 8.312 12.466 12.466v590.068c0 12.466-8.312 12.466-12.466 12.466h-864.322zM404.814 485.394c-33.246 0-58.176-24.93-58.176-58.176 0-8.312 8.312-16.62 16.62-16.62s16.62 8.312 16.62 16.62c0 12.466 12.466 24.93 24.93 24.93 8.312 0 16.618 8.312 16.618 16.618s-8.312 16.62-16.62 16.62zM280.154 423.068c-8.312 0-16.62-8.312-16.62-16.62s8.312-16.62 16.62-16.62c12.466 0 24.93-12.466 24.93-24.932 0-8.312 8.312-16.62 16.618-16.62s16.62 8.312 16.62 16.62c0 33.246-24.93 58.176-58.176 58.176zM296.772 543.576c-24.93 0-45.712-20.778-45.712-45.712s20.778-45.712 45.712-45.712 45.712 20.778 45.712 45.712c0 24.932-20.778 45.712-45.712 45.712zM296.772 477.088c-12.466 0-20.778 8.312-20.778 20.778s8.312 20.778 20.778 20.778 20.778-8.312 20.778-20.778c0-12.466-8.312-20.778-20.778-20.778zM496.234 464.62h-8.312c-4.156 33.246-16.618 58.176-33.246 83.11l8.312 8.312c8.312 8.312 8.312 16.62 0 24.93s-16.618 8.312-24.93 0l-8.312-8.312c-24.93 20.778-54.018 33.246-83.11 33.246v8.312c0 8.312-8.312 16.618-16.62 16.618s-16.62-8.312-16.62-16.62v-8.312c-33.246-4.156-58.176-16.62-83.11-33.246l-8.312 8.312c-8.312 8.312-16.618 8.312-24.932 0s-8.312-16.62 0-24.932l8.312-8.312c-20.778-24.932-33.246-54.018-33.246-83.11h-8.312c-8.312 0-16.618-8.312-16.618-16.618s8.312-16.62 16.618-16.62h8.312c4.158-33.246 16.618-58.176 33.246-83.11l-8.312-8.312c-8.312-8.312-8.312-16.62 0-24.932 4.158-4.158 8.312-4.158 12.466-4.158s8.312 0 12.466 4.158l8.312 8.312c24.932-20.778 54.018-33.246 83.11-33.246v-8.312c0-8.312 8.312-16.62 16.62-16.62s16.62 8.312 16.62 16.62v8.312c33.246 4.158 58.176 16.62 83.11 33.246l8.312-8.312c4.156-4.158 8.312-4.158 12.466-4.158s8.312 0 12.466 4.158c8.312 8.312 8.312 16.62 0 24.932l-8.312 8.312c20.778 24.932 33.246 54.018 33.246 83.11h8.312c8.312 0 16.62 8.312 16.62 16.62s-8.312 16.62-16.62 16.62zM330.020 323.336c-70.644 0-124.664 58.176-124.664 124.664 0 70.644 58.176 124.664 124.664 124.664 70.644 0 124.664-58.176 124.664-124.664 0-70.644-54.018-124.664-124.664-124.664z" />
<glyph unicode="&#xe631;" glyph-name="entry" horiz-adv-x="1040" d="M850.87 203.5h115.818c25.736 0 47.186 21.448 47.186 47.186v561.92c0 25.736-21.448 47.186-47.186 47.186h-900.784c-25.734 0-47.186-21.448-47.186-47.186v-566.206c0-25.736 21.448-47.186 47.186-47.186h107.23c0 8.58 0 12.868 0 21.448s0 21.448 0 30.028h-81.498c-12.868 0-25.734 12.868-25.734 25.736v510.442c0 12.868 12.868 25.736 25.734 25.736h845.024c12.868 0 25.736-12.868 25.736-25.736v-510.442c0-12.868-12.868-25.736-25.736-25.736h-85.792c0-12.868 0-21.448 0-30.028 0-4.292 0-12.868 0-17.154zM507.71 495.186c-150.132 0-270.234-120.1-270.234-270.234s120.1-270.234 270.234-270.234 270.234 120.1 270.234 270.234c4.292 150.132-120.1 270.234-270.234 270.234zM649.26 182.052h-98.658v-98.658c0-21.448-17.154-38.6-38.6-38.6s-38.6 17.154-38.6 38.6v98.658h-98.658c-21.448 0-38.6 17.154-38.6 38.6s17.154 38.6 38.6 38.6h94.37v102.948c0 21.448 17.154 38.6 38.6 38.6s38.6-17.154 38.6-38.6v-98.658h98.658c21.448 0 38.6-17.154 38.6-38.6 4.292-21.448-12.868-42.894-34.318-42.894z" />
</font>
</defs>
</svg>
